<?xml version="1.0" encoding="UTF-8" standalone="no"?>
<!DOCTYPE svg PUBLIC "-//W3C//DTD SVG 1.1//EN"
 "http://www.w3.org/Graphics/SVG/1.1/DTD/svg11.dtd">
<!-- Generated by graphviz version 2.38.0 (20140413.2041)
 -->
<!-- Title: %3 Pages: 1 -->
<svg width="2773pt" height="1952pt"
 viewBox="0.00 0.00 2772.60 1952.00" xmlns="http://www.w3.org/2000/svg" xmlns:xlink="http://www.w3.org/1999/xlink">
<g id="graph0" class="graph" transform="scale(1 1) rotate(0) translate(4 1948)">
<title>%3</title>
<polygon fill="white" stroke="none" points="-4,4 -4,-1948 2768.6,-1948 2768.6,4 -4,4"/>
<text text-anchor="middle" x="1382.3" y="-217.8" font-family="Times,serif" font-size="14.00">Namespaces:</text>
<text text-anchor="middle" x="1382.3" y="-202.8" font-family="Times,serif" font-size="14.00">rdf: https://www.w3.org/TR/rdf&#45;schema/#</text>
<text text-anchor="middle" x="1382.3" y="-187.8" font-family="Times,serif" font-size="14.00">foaf: https://xmlns.com/foaf/0.1/</text>
<text text-anchor="middle" x="1382.3" y="-172.8" font-family="Times,serif" font-size="14.00">gn: http://www.geonames.org/ontology</text>
<text text-anchor="middle" x="1382.3" y="-157.8" font-family="Times,serif" font-size="14.00">dbo: http://dbpedia.org/ontology/</text>
<text text-anchor="middle" x="1382.3" y="-142.8" font-family="Times,serif" font-size="14.00">person: http://www.w3.org/ns/person/</text>
<text text-anchor="middle" x="1382.3" y="-127.8" font-family="Times,serif" font-size="14.00">gndo: https://d&#45;nb.info/standards/elementset/gnd#</text>
<text text-anchor="middle" x="1382.3" y="-112.8" font-family="Times,serif" font-size="14.00">core: https://www.bbc.co.uk/ontologies/coreconcepts/</text>
<text text-anchor="middle" x="1382.3" y="-97.8" font-family="Times,serif" font-size="14.00">xsd: http://www.w3.org/2001/XMLSchema</text>
<text text-anchor="middle" x="1382.3" y="-82.8" font-family="Times,serif" font-size="14.00">geo: http://www.w3.org/2003/01/geo/wgs84_pos#</text>
<text text-anchor="middle" x="1382.3" y="-67.8" font-family="Times,serif" font-size="14.00">schema: http://schema.org/</text>
<text text-anchor="middle" x="1382.3" y="-52.8" font-family="Times,serif" font-size="14.00">crm: http://www.cidoc&#45;crm.org/cidoc&#45;crm/</text>
<text text-anchor="middle" x="1382.3" y="-37.8" font-family="Times,serif" font-size="14.00">dcterms: http://purl.org/dc/terms/</text>
<text text-anchor="middle" x="1382.3" y="-22.8" font-family="Times,serif" font-size="14.00">bio: http://purl.org/vocab/bio/0.1/</text>
<text text-anchor="middle" x="1382.3" y="-7.8" font-family="Times,serif" font-size="14.00">dbc: http://dbpedia.org/resource/Category:</text>
<!-- Rhttps://arnenaesslod.github.io/person/Arne_Naess -->
<g id="node1" class="node"><title>Rhttps://arnenaesslod.github.io/person/Arne_Naess</title>
<ellipse fill="none" stroke="blue" cx="1087.12" cy="-931" rx="243.157" ry="18"/>
<text text-anchor="middle" x="1087.12" y="-927.3" font-family="Times,serif" font-size="14.00">https://arnenaesslod.github.io/person/Arne_Naess</text>
</g>
<!-- Rfoaf:Person -->
<g id="node2" class="node"><title>Rfoaf:Person</title>
<ellipse fill="none" stroke="blue" cx="2191.6" cy="-1418" rx="63.0888" ry="18"/>
<text text-anchor="middle" x="2191.6" y="-1414.3" font-family="Times,serif" font-size="14.00">foaf:Person</text>
</g>
<!-- Rhttps://arnenaesslod.github.io/person/Arne_Naess&#45;&gt;Rfoaf:Person -->
<g id="edge1" class="edge"><title>Rhttps://arnenaesslod.github.io/person/Arne_Naess&#45;&gt;Rfoaf:Person</title>
<path fill="none" stroke="black" d="M1095.13,-949.383C1122.68,-1018.84 1230.97,-1266.54 1410.6,-1369 1471.11,-1403.52 1936.6,-1414.19 2118.29,-1417.06"/>
<polygon fill="black" stroke="black" points="2118.49,-1420.56 2128.54,-1417.22 2118.6,-1413.56 2118.49,-1420.56"/>
<text text-anchor="middle" x="1505.6" y="-1401.8" font-family="Times,serif" font-size="14.00">rdf:type</text>
</g>
<!-- LArne -->
<g id="node3" class="node"><title>LArne</title>
<polygon fill="none" stroke="black" points="2164.6,-1345 2164.6,-1381 2218.6,-1381 2218.6,-1345 2164.6,-1345"/>
<text text-anchor="middle" x="2191.6" y="-1359.3" font-family="Times,serif" font-size="14.00">Arne</text>
</g>
<!-- Rhttps://arnenaesslod.github.io/person/Arne_Naess&#45;&gt;LArne -->
<g id="edge2" class="edge"><title>Rhttps://arnenaesslod.github.io/person/Arne_Naess&#45;&gt;LArne</title>
<path fill="none" stroke="black" d="M1096.16,-949.183C1126.18,-1014.57 1238.91,-1238.48 1410.6,-1325 1477.41,-1358.67 2008.87,-1362.53 2154.06,-1362.95"/>
<polygon fill="black" stroke="black" points="2154.21,-1366.45 2164.22,-1362.98 2154.23,-1359.45 2154.21,-1366.45"/>
<text text-anchor="middle" x="1505.6" y="-1353.8" font-family="Times,serif" font-size="14.00">foaf:firstName</text>
</g>
<!-- LNaess -->
<g id="node4" class="node"><title>LNaess</title>
<polygon fill="none" stroke="black" points="2161.1,-1290 2161.1,-1326 2222.1,-1326 2222.1,-1290 2161.1,-1290"/>
<text text-anchor="middle" x="2191.6" y="-1304.3" font-family="Times,serif" font-size="14.00">Naess</text>
</g>
<!-- Rhttps://arnenaesslod.github.io/person/Arne_Naess&#45;&gt;LNaess -->
<g id="edge3" class="edge"><title>Rhttps://arnenaesslod.github.io/person/Arne_Naess&#45;&gt;LNaess</title>
<path fill="none" stroke="black" d="M1098.31,-949.117C1132.84,-1008.48 1252.19,-1197.44 1410.6,-1270 1544.24,-1331.22 2011.15,-1315.99 2150.83,-1309.9"/>
<polygon fill="black" stroke="black" points="2151.23,-1313.39 2161.07,-1309.44 2150.92,-1306.39 2151.23,-1313.39"/>
<text text-anchor="middle" x="1505.6" y="-1309.8" font-family="Times,serif" font-size="14.00">foaf:lastName</text>
</g>
<!-- LMale -->
<g id="node5" class="node"><title>LMale</title>
<polygon fill="none" stroke="black" points="2164.6,-1235 2164.6,-1271 2218.6,-1271 2218.6,-1235 2164.6,-1235"/>
<text text-anchor="middle" x="2191.6" y="-1249.3" font-family="Times,serif" font-size="14.00">Male</text>
</g>
<!-- Rhttps://arnenaesslod.github.io/person/Arne_Naess&#45;&gt;LMale -->
<g id="edge4" class="edge"><title>Rhttps://arnenaesslod.github.io/person/Arne_Naess&#45;&gt;LMale</title>
<path fill="none" stroke="black" d="M1103.7,-949.219C1146.78,-998.257 1273.48,-1133.41 1410.6,-1194 1675.3,-1310.96 2039.79,-1274.08 2154.52,-1258.44"/>
<polygon fill="black" stroke="black" points="2155.11,-1261.89 2164.53,-1257.04 2154.14,-1254.96 2155.11,-1261.89"/>
<text text-anchor="middle" x="1505.6" y="-1254.8" font-family="Times,serif" font-size="14.00">foaf:gender</text>
</g>
<!-- Rgn:3138308 -->
<g id="node6" class="node"><title>Rgn:3138308</title>
<ellipse fill="none" stroke="blue" cx="2191.6" cy="-1198" rx="66.0889" ry="18"/>
<text text-anchor="middle" x="2191.6" y="-1194.3" font-family="Times,serif" font-size="14.00">gn:3138308</text>
</g>
<!-- Rhttps://arnenaesslod.github.io/person/Arne_Naess&#45;&gt;Rgn:3138308 -->
<g id="edge5" class="edge"><title>Rhttps://arnenaesslod.github.io/person/Arne_Naess&#45;&gt;Rgn:3138308</title>
<path fill="none" stroke="black" d="M1112.69,-949.022C1164.88,-986.496 1291.81,-1073.29 1410.6,-1121 1655.13,-1219.21 1976.04,-1212.9 2117.85,-1204"/>
<polygon fill="black" stroke="black" points="2118.41,-1207.47 2128.16,-1203.33 2117.95,-1200.48 2118.41,-1207.47"/>
<text text-anchor="middle" x="1505.6" y="-1178.8" font-family="Times,serif" font-size="14.00">person:placeOfBirth</text>
</g>
<!-- Rgn:3144096 -->
<g id="node7" class="node"><title>Rgn:3144096</title>
<ellipse fill="none" stroke="blue" cx="2191.6" cy="-1474" rx="66.0889" ry="18"/>
<text text-anchor="middle" x="2191.6" y="-1470.3" font-family="Times,serif" font-size="14.00">gn:3144096</text>
</g>
<!-- Rhttps://arnenaesslod.github.io/person/Arne_Naess&#45;&gt;Rgn:3144096 -->
<g id="edge6" class="edge"><title>Rhttps://arnenaesslod.github.io/person/Arne_Naess&#45;&gt;Rgn:3144096</title>
<path fill="none" stroke="black" d="M1092.64,-949.101C1113.11,-1026.84 1205.25,-1333.77 1410.6,-1452 1470.55,-1486.52 1931.42,-1479.96 2115.25,-1475.9"/>
<polygon fill="black" stroke="black" points="2115.45,-1479.39 2125.37,-1475.67 2115.3,-1472.39 2115.45,-1479.39"/>
<text text-anchor="middle" x="1505.6" y="-1479.8" font-family="Times,serif" font-size="14.00">person:countryOfBirth</text>
</g>
<!-- Rhttps://arnenaesslod.github.io/person/Arne_Naess&#45;&gt;Rgn:3144096 -->
<g id="edge13" class="edge"><title>Rhttps://arnenaesslod.github.io/person/Arne_Naess&#45;&gt;Rgn:3144096</title>
<path fill="none" stroke="black" d="M1093.85,-949.182C1118.04,-1022.67 1219.58,-1299.27 1410.6,-1414 1483.35,-1457.7 1520.7,-1404.39 1600.6,-1433 1609.65,-1436.24 1609.47,-1441.98 1618.6,-1445 1791.85,-1502.29 2010.66,-1492.34 2120.67,-1482.12"/>
<polygon fill="black" stroke="black" points="2121.03,-1485.6 2130.65,-1481.16 2120.36,-1478.63 2121.03,-1485.6"/>
<text text-anchor="middle" x="1505.6" y="-1436.8" font-family="Times,serif" font-size="14.00">gndo:placeOfActivity</text>
</g>
<!-- L1912&#45;01&#45;27|Datatype: xsd:date -->
<g id="node8" class="node"><title>L1912&#45;01&#45;27|Datatype: xsd:date</title>
<polygon fill="none" stroke="black" points="2115.6,-1115 2115.6,-1161 2267.6,-1161 2267.6,-1115 2115.6,-1115"/>
<text text-anchor="middle" x="2191.6" y="-1145.8" font-family="Times,serif" font-size="14.00">1912&#45;01&#45;27</text>
<polyline fill="none" stroke="black" points="2115.6,-1138 2267.6,-1138 "/>
<text text-anchor="middle" x="2191.6" y="-1122.8" font-family="Times,serif" font-size="14.00">Datatype: xsd:date</text>
</g>
<!-- Rhttps://arnenaesslod.github.io/person/Arne_Naess&#45;&gt;L1912&#45;01&#45;27|Datatype: xsd:date -->
<g id="edge7" class="edge"><title>Rhttps://arnenaesslod.github.io/person/Arne_Naess&#45;&gt;L1912&#45;01&#45;27|Datatype: xsd:date</title>
<path fill="none" stroke="black" d="M1128.18,-948.838C1188.49,-975.197 1306.65,-1024.89 1410.6,-1057 1501.24,-1085 1524.68,-1091.55 1618.6,-1105 1789.99,-1129.54 1992.76,-1135.97 2105,-1137.56"/>
<polygon fill="black" stroke="black" points="2105.19,-1141.07 2115.24,-1137.7 2105.29,-1134.07 2105.19,-1141.07"/>
<text text-anchor="middle" x="1505.6" y="-1105.8" font-family="Times,serif" font-size="14.00">gndo:dataOfBirth</text>
</g>
<!-- L2009&#45;01&#45;12|Datatype: xsd:date -->
<g id="node9" class="node"><title>L2009&#45;01&#45;12|Datatype: xsd:date</title>
<polygon fill="none" stroke="black" points="2115.6,-1050 2115.6,-1096 2267.6,-1096 2267.6,-1050 2115.6,-1050"/>
<text text-anchor="middle" x="2191.6" y="-1080.8" font-family="Times,serif" font-size="14.00">2009&#45;01&#45;12</text>
<polyline fill="none" stroke="black" points="2115.6,-1073 2267.6,-1073 "/>
<text text-anchor="middle" x="2191.6" y="-1057.8" font-family="Times,serif" font-size="14.00">Datatype: xsd:date</text>
</g>
<!-- Rhttps://arnenaesslod.github.io/person/Arne_Naess&#45;&gt;L2009&#45;01&#45;12|Datatype: xsd:date -->
<g id="edge8" class="edge"><title>Rhttps://arnenaesslod.github.io/person/Arne_Naess&#45;&gt;L2009&#45;01&#45;12|Datatype: xsd:date</title>
<path fill="none" stroke="black" d="M1160.93,-948.209C1226.17,-963.4 1324.54,-985.748 1410.6,-1003 1502.66,-1021.46 1525.34,-1029.05 1618.6,-1040 1790.56,-1060.18 1993.12,-1068.18 2105.17,-1071.23"/>
<polygon fill="black" stroke="black" points="2105.31,-1074.73 2115.4,-1071.5 2105.49,-1067.73 2105.31,-1074.73"/>
<text text-anchor="middle" x="1505.6" y="-1041.8" font-family="Times,serif" font-size="14.00">gndo:dataOfDeath</text>
</g>
<!-- Rgn:3143244 -->
<g id="node10" class="node"><title>Rgn:3143244</title>
<ellipse fill="none" stroke="blue" cx="2191.6" cy="-1013" rx="66.0889" ry="18"/>
<text text-anchor="middle" x="2191.6" y="-1009.3" font-family="Times,serif" font-size="14.00">gn:3143244</text>
</g>
<!-- Rhttps://arnenaesslod.github.io/person/Arne_Naess&#45;&gt;Rgn:3143244 -->
<g id="edge9" class="edge"><title>Rhttps://arnenaesslod.github.io/person/Arne_Naess&#45;&gt;Rgn:3143244</title>
<path fill="none" stroke="black" d="M1216.04,-946.296C1323.37,-958.643 1480.8,-975.612 1618.6,-986 1796.27,-999.393 2005.51,-1007.27 2115.05,-1010.78"/>
<polygon fill="black" stroke="black" points="2115.22,-1014.29 2125.33,-1011.11 2115.45,-1007.3 2115.22,-1014.29"/>
<text text-anchor="middle" x="1505.6" y="-987.8" font-family="Times,serif" font-size="14.00">person:placeOfDeath</text>
</g>
<!-- Rgn:3154173 -->
<g id="node11" class="node"><title>Rgn:3154173</title>
<ellipse fill="none" stroke="blue" cx="2191.6" cy="-959" rx="66.0889" ry="18"/>
<text text-anchor="middle" x="2191.6" y="-955.3" font-family="Times,serif" font-size="14.00">gn:3154173</text>
</g>
<!-- Rhttps://arnenaesslod.github.io/person/Arne_Naess&#45;&gt;Rgn:3154173 -->
<g id="edge10" class="edge"><title>Rhttps://arnenaesslod.github.io/person/Arne_Naess&#45;&gt;Rgn:3154173</title>
<path fill="none" stroke="black" d="M1317.23,-936.819C1567.09,-943.165 1952.99,-952.965 2114.96,-957.079"/>
<polygon fill="black" stroke="black" points="2115.21,-960.586 2125.3,-957.342 2115.39,-953.589 2115.21,-960.586"/>
<text text-anchor="middle" x="1505.6" y="-947.8" font-family="Times,serif" font-size="14.00">dbo:livingPlace</text>
</g>
<!-- LEnvironmental Philosophy -->
<g id="node12" class="node"><title>LEnvironmental Philosophy</title>
<polygon fill="none" stroke="black" points="2089.1,-886 2089.1,-922 2294.1,-922 2294.1,-886 2089.1,-886"/>
<text text-anchor="middle" x="2191.6" y="-900.3" font-family="Times,serif" font-size="14.00">Environmental Philosophy</text>
</g>
<!-- Rhttps://arnenaesslod.github.io/person/Arne_Naess&#45;&gt;LEnvironmental Philosophy -->
<g id="edge11" class="edge"><title>Rhttps://arnenaesslod.github.io/person/Arne_Naess&#45;&gt;LEnvironmental Philosophy</title>
<path fill="none" stroke="black" d="M1314.52,-924.543C1346.77,-923.664 1379.52,-922.792 1410.6,-922 1648.53,-915.934 1927.31,-909.715 2078.77,-906.411"/>
<polygon fill="black" stroke="black" points="2079.08,-909.905 2089,-906.188 2078.93,-902.907 2079.08,-909.905"/>
<text text-anchor="middle" x="1505.6" y="-925.8" font-family="Times,serif" font-size="14.00">foaf:interest</text>
</g>
<!-- LEnvironmental Ethics -->
<g id="node13" class="node"><title>LEnvironmental Ethics</title>
<polygon fill="none" stroke="black" points="2105.1,-831 2105.1,-867 2278.1,-867 2278.1,-831 2105.1,-831"/>
<text text-anchor="middle" x="2191.6" y="-845.3" font-family="Times,serif" font-size="14.00">Environmental Ethics</text>
</g>
<!-- Rhttps://arnenaesslod.github.io/person/Arne_Naess&#45;&gt;LEnvironmental Ethics -->
<g id="edge12" class="edge"><title>Rhttps://arnenaesslod.github.io/person/Arne_Naess&#45;&gt;LEnvironmental Ethics</title>
<path fill="none" stroke="black" d="M1276.44,-919.709C1315.04,-915.881 1355.27,-910.782 1392.6,-904 1400.77,-902.516 1402.44,-900.572 1410.6,-899 1501.92,-881.385 1525.88,-883.307 1618.6,-876 1785.75,-862.826 1980.93,-855.291 2094.66,-851.684"/>
<polygon fill="black" stroke="black" points="2094.84,-855.18 2104.73,-851.368 2094.62,-848.183 2094.84,-855.18"/>
<text text-anchor="middle" x="1505.6" y="-902.8" font-family="Times,serif" font-size="14.00">foaf:interest</text>
</g>
<!-- Rgn:1168579 -->
<g id="node14" class="node"><title>Rgn:1168579</title>
<ellipse fill="none" stroke="blue" cx="2191.6" cy="-794" rx="66.0889" ry="18"/>
<text text-anchor="middle" x="2191.6" y="-790.3" font-family="Times,serif" font-size="14.00">gn:1168579</text>
</g>
<!-- Rhttps://arnenaesslod.github.io/person/Arne_Naess&#45;&gt;Rgn:1168579 -->
<g id="edge14" class="edge"><title>Rhttps://arnenaesslod.github.io/person/Arne_Naess&#45;&gt;Rgn:1168579</title>
<path fill="none" stroke="black" d="M1190.07,-947.307C1254.18,-951.879 1335.32,-946.589 1392.6,-904 1409.88,-891.147 1393.92,-872.636 1410.6,-859 1517.09,-771.915 1943.02,-781.921 2116.51,-789.914"/>
<polygon fill="black" stroke="black" points="2116.42,-793.414 2126.57,-790.389 2116.75,-786.421 2116.42,-793.414"/>
<text text-anchor="middle" x="1505.6" y="-862.8" font-family="Times,serif" font-size="14.00">gndo:placeOfActivity</text>
</g>
<!-- Rhttps://arnenaesslod.github.io/concept/Deep_Ecology -->
<g id="node15" class="node"><title>Rhttps://arnenaesslod.github.io/concept/Deep_Ecology</title>
<ellipse fill="none" stroke="blue" cx="2191.6" cy="-740" rx="258.854" ry="18"/>
<text text-anchor="middle" x="2191.6" y="-736.3" font-family="Times,serif" font-size="14.00">https://arnenaesslod.github.io/concept/Deep_Ecology</text>
</g>
<!-- Rhttps://arnenaesslod.github.io/person/Arne_Naess&#45;&gt;Rhttps://arnenaesslod.github.io/concept/Deep_Ecology -->
<g id="edge15" class="edge"><title>Rhttps://arnenaesslod.github.io/person/Arne_Naess&#45;&gt;Rhttps://arnenaesslod.github.io/concept/Deep_Ecology</title>
<path fill="none" stroke="black" d="M1165.29,-948.102C1234.07,-958.419 1332.83,-960.324 1392.6,-904 1432.16,-866.71 1370.81,-820.058 1410.6,-783 1495.93,-703.515 1818.6,-711.416 2021.24,-725.166"/>
<polygon fill="black" stroke="black" points="2021.18,-728.67 2031.4,-725.867 2021.66,-721.687 2021.18,-728.67"/>
<text text-anchor="middle" x="1505.6" y="-786.8" font-family="Times,serif" font-size="14.00">dbo:influenced</text>
</g>
<!-- Rhttps://arnenaesslod.github.io/item/Documentary_Film_about_Arne_Naess -->
<g id="node16" class="node"><title>Rhttps://arnenaesslod.github.io/item/Documentary_Film_about_Arne_Naess</title>
<ellipse fill="none" stroke="blue" cx="2191.6" cy="-686" rx="357.437" ry="18"/>
<text text-anchor="middle" x="2191.6" y="-682.3" font-family="Times,serif" font-size="14.00">https://arnenaesslod.github.io/item/Documentary_Film_about_Arne_Naess</text>
</g>
<!-- Rhttps://arnenaesslod.github.io/person/Arne_Naess&#45;&gt;Rhttps://arnenaesslod.github.io/item/Documentary_Film_about_Arne_Naess -->
<g id="edge16" class="edge"><title>Rhttps://arnenaesslod.github.io/person/Arne_Naess&#45;&gt;Rhttps://arnenaesslod.github.io/item/Documentary_Film_about_Arne_Naess</title>
<path fill="none" stroke="black" d="M1161.72,-948.19C1231.16,-959.617 1333.23,-963.209 1392.6,-904 1423.72,-872.957 1378.53,-737.071 1410.6,-707 1445.99,-673.808 1686.1,-671.192 1890.68,-675.323"/>
<polygon fill="black" stroke="black" points="1890.63,-678.823 1900.7,-675.531 1890.78,-671.824 1890.63,-678.823"/>
<text text-anchor="middle" x="1505.6" y="-710.8" font-family="Times,serif" font-size="14.00">foaf:depiction</text>
</g>
<!-- LPhilopher -->
<g id="node17" class="node"><title>LPhilopher</title>
<polygon fill="none" stroke="black" points="2148.6,-613 2148.6,-649 2234.6,-649 2234.6,-613 2148.6,-613"/>
<text text-anchor="middle" x="2191.6" y="-627.3" font-family="Times,serif" font-size="14.00">Philopher</text>
</g>
<!-- Rhttps://arnenaesslod.github.io/person/Arne_Naess&#45;&gt;LPhilopher -->
<g id="edge17" class="edge"><title>Rhttps://arnenaesslod.github.io/person/Arne_Naess&#45;&gt;LPhilopher</title>
<path fill="none" stroke="black" d="M1160.63,-948.199C1230.27,-959.97 1333.39,-964.113 1392.6,-904 1430.91,-865.108 1371.28,-696.872 1410.6,-659 1462.73,-608.782 1971.28,-622.89 2137.98,-628.926"/>
<polygon fill="black" stroke="black" points="2138.33,-632.441 2148.46,-629.311 2138.59,-625.446 2138.33,-632.441"/>
<text text-anchor="middle" x="1505.6" y="-662.8" font-family="Times,serif" font-size="14.00">core:occupation</text>
</g>
<!-- LPhilosopher -->
<g id="node18" class="node"><title>LPhilosopher</title>
<polygon fill="none" stroke="black" points="2141.1,-558 2141.1,-594 2242.1,-594 2242.1,-558 2141.1,-558"/>
<text text-anchor="middle" x="2191.6" y="-572.3" font-family="Times,serif" font-size="14.00">Philosopher</text>
</g>
<!-- Rhttps://arnenaesslod.github.io/person/Arne_Naess&#45;&gt;LPhilosopher -->
<g id="edge18" class="edge"><title>Rhttps://arnenaesslod.github.io/person/Arne_Naess&#45;&gt;LPhilosopher</title>
<path fill="none" stroke="black" d="M1159.81,-948.188C1229.58,-960.205 1333.48,-964.764 1392.6,-904 1438.4,-856.925 1363.73,-655.006 1410.6,-609 1461.55,-558.991 1956.99,-568.946 2130.75,-574.036"/>
<polygon fill="black" stroke="black" points="2130.89,-577.542 2140.99,-574.341 2131.09,-570.545 2130.89,-577.542"/>
<text text-anchor="middle" x="1505.6" y="-612.8" font-family="Times,serif" font-size="14.00">core:knownFor</text>
</g>
<!-- LWriter -->
<g id="node19" class="node"><title>LWriter</title>
<polygon fill="none" stroke="black" points="2160.1,-503 2160.1,-539 2223.1,-539 2223.1,-503 2160.1,-503"/>
<text text-anchor="middle" x="2191.6" y="-517.3" font-family="Times,serif" font-size="14.00">Writer</text>
</g>
<!-- Rhttps://arnenaesslod.github.io/person/Arne_Naess&#45;&gt;LWriter -->
<g id="edge19" class="edge"><title>Rhttps://arnenaesslod.github.io/person/Arne_Naess&#45;&gt;LWriter</title>
<path fill="none" stroke="black" d="M1159.6,-948.244C1229.46,-960.39 1333.66,-965.124 1392.6,-904 1419.32,-876.287 1383.32,-585.167 1410.6,-558 1463.18,-505.621 1996.59,-515.781 2149.71,-519.812"/>
<polygon fill="black" stroke="black" points="2149.97,-523.321 2160.06,-520.091 2150.16,-516.323 2149.97,-523.321"/>
<text text-anchor="middle" x="1505.6" y="-561.8" font-family="Times,serif" font-size="14.00">core:knownFor</text>
</g>
<!-- LProfessor -->
<g id="node20" class="node"><title>LProfessor</title>
<polygon fill="none" stroke="black" points="2149.1,-448 2149.1,-484 2234.1,-484 2234.1,-448 2149.1,-448"/>
<text text-anchor="middle" x="2191.6" y="-462.3" font-family="Times,serif" font-size="14.00">Professor</text>
</g>
<!-- Rhttps://arnenaesslod.github.io/person/Arne_Naess&#45;&gt;LProfessor -->
<g id="edge20" class="edge"><title>Rhttps://arnenaesslod.github.io/person/Arne_Naess&#45;&gt;LProfessor</title>
<path fill="none" stroke="black" d="M1159.03,-948.213C1228.97,-960.509 1333.69,-965.515 1392.6,-904 1423.22,-872.029 1379.57,-537.57 1410.6,-506 1511.41,-403.435 1980.71,-443.38 2138.6,-460.084"/>
<polygon fill="black" stroke="black" points="2138.67,-463.611 2148.99,-461.197 2139.42,-456.651 2138.67,-463.611"/>
<text text-anchor="middle" x="1505.6" y="-509.8" font-family="Times,serif" font-size="14.00">core:knownFor</text>
</g>
<!-- LMountaineer -->
<g id="node21" class="node"><title>LMountaineer</title>
<polygon fill="none" stroke="black" points="2137.1,-393 2137.1,-429 2246.1,-429 2246.1,-393 2137.1,-393"/>
<text text-anchor="middle" x="2191.6" y="-407.3" font-family="Times,serif" font-size="14.00">Mountaineer</text>
</g>
<!-- Rhttps://arnenaesslod.github.io/person/Arne_Naess&#45;&gt;LMountaineer -->
<g id="edge21" class="edge"><title>Rhttps://arnenaesslod.github.io/person/Arne_Naess&#45;&gt;LMountaineer</title>
<path fill="none" stroke="black" d="M1158.8,-948.246C1228.81,-960.655 1333.82,-965.828 1392.6,-904 1429.06,-865.64 1372.87,-465.124 1410.6,-428 1461.06,-378.339 1949.4,-398.458 2126.69,-407.5"/>
<polygon fill="black" stroke="black" points="2126.75,-411.007 2136.91,-408.026 2127.11,-404.016 2126.75,-411.007"/>
<text text-anchor="middle" x="1505.6" y="-431.8" font-family="Times,serif" font-size="14.00">core:knownFor</text>
</g>
<!-- Rhttps://en.wikipedia.org/wiki/Arne_N%C3%A6ss -->
<g id="node22" class="node"><title>Rhttps://en.wikipedia.org/wiki/Arne_N%C3%A6ss</title>
<ellipse fill="none" stroke="blue" cx="2191.6" cy="-356" rx="235.058" ry="18"/>
<text text-anchor="middle" x="2191.6" y="-352.3" font-family="Times,serif" font-size="14.00">https://en.wikipedia.org/wiki/Arne_N%C3%A6ss</text>
</g>
<!-- Rhttps://arnenaesslod.github.io/person/Arne_Naess&#45;&gt;Rhttps://en.wikipedia.org/wiki/Arne_N%C3%A6ss -->
<g id="edge22" class="edge"><title>Rhttps://arnenaesslod.github.io/person/Arne_Naess&#45;&gt;Rhttps://en.wikipedia.org/wiki/Arne_N%C3%A6ss</title>
<path fill="none" stroke="black" d="M1158.52,-948.23C1228.56,-960.714 1333.84,-966.026 1392.6,-904 1432.66,-861.707 1369.33,-421.12 1410.6,-380 1607.14,-184.16 1988.4,-286.296 2133.05,-334.991"/>
<polygon fill="black" stroke="black" points="2132.05,-338.346 2142.64,-338.258 2134.31,-331.72 2132.05,-338.346"/>
<text text-anchor="middle" x="1505.6" y="-383.8" font-family="Times,serif" font-size="14.00">dbo:wikipageExternalLink</text>
</g>
<!-- Rhttps://arnenaesslod.github.io/place/Mardalsfossen -->
<g id="node23" class="node"><title>Rhttps://arnenaesslod.github.io/place/Mardalsfossen</title>
<ellipse fill="none" stroke="blue" cx="1087.12" cy="-1706" rx="248.856" ry="18"/>
<text text-anchor="middle" x="1087.12" y="-1702.3" font-family="Times,serif" font-size="14.00">https://arnenaesslod.github.io/place/Mardalsfossen</text>
</g>
<!-- Rhttps://arnenaesslod.github.io/place/Mardalsfossen&#45;&gt;Rgn:3144096 -->
<g id="edge25" class="edge"><title>Rhttps://arnenaesslod.github.io/place/Mardalsfossen&#45;&gt;Rgn:3144096</title>
<path fill="none" stroke="black" d="M1119.03,-1687.94C1175.19,-1655.91 1298.54,-1589.12 1410.6,-1553 1659.41,-1472.79 1973.93,-1468.47 2115.51,-1471.31"/>
<polygon fill="black" stroke="black" points="2115.74,-1474.82 2125.81,-1471.54 2115.89,-1467.82 2115.74,-1474.82"/>
<text text-anchor="middle" x="1505.6" y="-1556.8" font-family="Times,serif" font-size="14.00">gn:parentCountry</text>
</g>
<!-- Rcrm:E53_Place -->
<g id="node24" class="node"><title>Rcrm:E53_Place</title>
<ellipse fill="none" stroke="blue" cx="2191.6" cy="-1926" rx="81.4863" ry="18"/>
<text text-anchor="middle" x="2191.6" y="-1922.3" font-family="Times,serif" font-size="14.00">crm:E53_Place</text>
</g>
<!-- Rhttps://arnenaesslod.github.io/place/Mardalsfossen&#45;&gt;Rcrm:E53_Place -->
<g id="edge23" class="edge"><title>Rhttps://arnenaesslod.github.io/place/Mardalsfossen&#45;&gt;Rcrm:E53_Place</title>
<path fill="none" stroke="black" d="M1118.57,-1723.94C1174.49,-1756.09 1298.16,-1823.59 1410.6,-1860 1651.92,-1938.13 1955.97,-1937.42 2103.01,-1931.3"/>
<polygon fill="black" stroke="black" points="2103.48,-1934.78 2113.32,-1930.85 2103.18,-1927.79 2103.48,-1934.78"/>
<text text-anchor="middle" x="1505.6" y="-1908.8" font-family="Times,serif" font-size="14.00">rdf:type</text>
</g>
<!-- LMardalsfossen -->
<g id="node25" class="node"><title>LMardalsfossen</title>
<polygon fill="none" stroke="black" points="2130.6,-1853 2130.6,-1889 2252.6,-1889 2252.6,-1853 2130.6,-1853"/>
<text text-anchor="middle" x="2191.6" y="-1867.3" font-family="Times,serif" font-size="14.00">Mardalsfossen</text>
</g>
<!-- Rhttps://arnenaesslod.github.io/place/Mardalsfossen&#45;&gt;LMardalsfossen -->
<g id="edge24" class="edge"><title>Rhttps://arnenaesslod.github.io/place/Mardalsfossen&#45;&gt;LMardalsfossen</title>
<path fill="none" stroke="black" d="M1139.86,-1723.64C1203.15,-1744.78 1313.84,-1780.3 1410.6,-1804 1501.95,-1826.37 1525.19,-1832.01 1618.6,-1843 1798.43,-1864.16 2011.89,-1869.38 2120.12,-1870.64"/>
<polygon fill="black" stroke="black" points="2120.22,-1874.14 2130.26,-1870.75 2120.29,-1867.14 2120.22,-1874.14"/>
<text text-anchor="middle" x="1505.6" y="-1844.8" font-family="Times,serif" font-size="14.00">gn:name</text>
</g>
<!-- L62.4718943 -->
<g id="node26" class="node"><title>L62.4718943</title>
<polygon fill="none" stroke="black" points="2140.6,-1798 2140.6,-1834 2242.6,-1834 2242.6,-1798 2140.6,-1798"/>
<text text-anchor="middle" x="2191.6" y="-1812.3" font-family="Times,serif" font-size="14.00">62.4718943</text>
</g>
<!-- Rhttps://arnenaesslod.github.io/place/Mardalsfossen&#45;&gt;L62.4718943 -->
<g id="edge26" class="edge"><title>Rhttps://arnenaesslod.github.io/place/Mardalsfossen&#45;&gt;L62.4718943</title>
<path fill="none" stroke="black" d="M1177.86,-1722.8C1283.06,-1741.82 1462.84,-1772.19 1618.6,-1788 1804.55,-1806.87 2025.85,-1813.13 2130.31,-1815.12"/>
<polygon fill="black" stroke="black" points="2130.29,-1818.62 2140.35,-1815.3 2130.42,-1811.62 2130.29,-1818.62"/>
<text text-anchor="middle" x="1505.6" y="-1788.8" font-family="Times,serif" font-size="14.00">geo:lat</text>
</g>
<!-- L8.119833472 -->
<g id="node27" class="node"><title>L8.119833472</title>
<polygon fill="none" stroke="black" points="2136.1,-1743 2136.1,-1779 2247.1,-1779 2247.1,-1743 2136.1,-1743"/>
<text text-anchor="middle" x="2191.6" y="-1757.3" font-family="Times,serif" font-size="14.00">8.119833472</text>
</g>
<!-- Rhttps://arnenaesslod.github.io/place/Mardalsfossen&#45;&gt;L8.119833472 -->
<g id="edge27" class="edge"><title>Rhttps://arnenaesslod.github.io/place/Mardalsfossen&#45;&gt;L8.119833472</title>
<path fill="none" stroke="black" d="M1277.8,-1717.58C1321.42,-1720.13 1367.61,-1722.74 1410.6,-1725 1675.79,-1738.93 1991.86,-1752.62 2125.66,-1758.28"/>
<polygon fill="black" stroke="black" points="2125.6,-1761.78 2135.74,-1758.71 2125.89,-1754.79 2125.6,-1761.78"/>
<text text-anchor="middle" x="1505.6" y="-1737.8" font-family="Times,serif" font-size="14.00">geo:long</text>
</g>
<!-- Rhttps://en.wikipedia.org/wiki/Mardalsfossen -->
<g id="node28" class="node"><title>Rhttps://en.wikipedia.org/wiki/Mardalsfossen</title>
<ellipse fill="none" stroke="blue" cx="2191.6" cy="-1706" rx="215.262" ry="18"/>
<text text-anchor="middle" x="2191.6" y="-1702.3" font-family="Times,serif" font-size="14.00">https://en.wikipedia.org/wiki/Mardalsfossen</text>
</g>
<!-- Rhttps://arnenaesslod.github.io/place/Mardalsfossen&#45;&gt;Rhttps://en.wikipedia.org/wiki/Mardalsfossen -->
<g id="edge28" class="edge"><title>Rhttps://arnenaesslod.github.io/place/Mardalsfossen&#45;&gt;Rhttps://en.wikipedia.org/wiki/Mardalsfossen</title>
<path fill="none" stroke="black" d="M1336.23,-1706C1525.3,-1706 1783.44,-1706 1966.35,-1706"/>
<polygon fill="black" stroke="black" points="1966.36,-1709.5 1976.36,-1706 1966.36,-1702.5 1966.36,-1709.5"/>
<text text-anchor="middle" x="1505.6" y="-1709.8" font-family="Times,serif" font-size="14.00">dbo:wikipageExternalLink</text>
</g>
<!-- LMardalsfossen is a waterfall in Molde Municipality in Møre og Romsdal county, Norway. It is sometimes referred to as one of the tallest waterfalls in Europe. -->
<g id="node29" class="node"><title>LMardalsfossen is a waterfall in Molde Municipality in Møre og Romsdal county, Norway. It is sometimes referred to as one of the tallest waterfalls in Europe.</title>
<polygon fill="none" stroke="black" points="1618.6,-1633 1618.6,-1669 2764.6,-1669 2764.6,-1633 1618.6,-1633"/>
<text text-anchor="middle" x="2191.6" y="-1647.3" font-family="Times,serif" font-size="14.00">Mardalsfossen is a waterfall in Molde Municipality in Møre og Romsdal county, Norway. It is sometimes referred to as one of the tallest waterfalls in Europe.</text>
</g>
<!-- Rhttps://arnenaesslod.github.io/place/Mardalsfossen&#45;&gt;LMardalsfossen is a waterfall in Molde Municipality in Møre og Romsdal county, Norway. It is sometimes referred to as one of the tallest waterfalls in Europe. -->
<g id="edge29" class="edge"><title>Rhttps://arnenaesslod.github.io/place/Mardalsfossen&#45;&gt;LMardalsfossen is a waterfall in Molde Municipality in Møre og Romsdal county, Norway. It is sometimes referred to as one of the tallest waterfalls in Europe.</title>
<path fill="none" stroke="black" d="M1277.8,-1694.42C1321.42,-1691.87 1367.61,-1689.26 1410.6,-1687 1526.85,-1680.89 1652.87,-1674.83 1769.03,-1669.47"/>
<polygon fill="black" stroke="black" points="1769.34,-1672.96 1779.16,-1669.01 1769.01,-1665.97 1769.34,-1672.96"/>
<text text-anchor="middle" x="1505.6" y="-1690.8" font-family="Times,serif" font-size="14.00">dbo:abstract</text>
</g>
<!-- Rhttps://arnenaesslod.github.io/evnet/Mardøla_Campaign -->
<g id="node30" class="node"><title>Rhttps://arnenaesslod.github.io/evnet/Mardøla_Campaign</title>
<ellipse fill="none" stroke="blue" cx="2191.6" cy="-1596" rx="272.152" ry="18"/>
<text text-anchor="middle" x="2191.6" y="-1592.3" font-family="Times,serif" font-size="14.00">https://arnenaesslod.github.io/evnet/Mardøla_Campaign</text>
</g>
<!-- Rhttps://arnenaesslod.github.io/place/Mardalsfossen&#45;&gt;Rhttps://arnenaesslod.github.io/evnet/Mardøla_Campaign -->
<g id="edge30" class="edge"><title>Rhttps://arnenaesslod.github.io/place/Mardalsfossen&#45;&gt;Rhttps://arnenaesslod.github.io/evnet/Mardøla_Campaign</title>
<path fill="none" stroke="black" d="M1176.44,-1689.19C1281.42,-1669.9 1462.1,-1638.89 1618.6,-1623 1718.42,-1612.86 1828.44,-1606.52 1925.11,-1602.56"/>
<polygon fill="black" stroke="black" points="1925.47,-1606.05 1935.32,-1602.15 1925.18,-1599.06 1925.47,-1606.05"/>
<text text-anchor="middle" x="1505.6" y="-1653.8" font-family="Times,serif" font-size="14.00">schema:event</text>
</g>
<!-- Rhttps://arnenaesslod.github.io/item/Landscape_Photograph -->
<g id="node31" class="node"><title>Rhttps://arnenaesslod.github.io/item/Landscape_Photograph</title>
<ellipse fill="none" stroke="blue" cx="2191.6" cy="-1542" rx="285.949" ry="18"/>
<text text-anchor="middle" x="2191.6" y="-1538.3" font-family="Times,serif" font-size="14.00">https://arnenaesslod.github.io/item/Landscape_Photograph</text>
</g>
<!-- Rhttps://arnenaesslod.github.io/place/Mardalsfossen&#45;&gt;Rhttps://arnenaesslod.github.io/item/Landscape_Photograph -->
<g id="edge31" class="edge"><title>Rhttps://arnenaesslod.github.io/place/Mardalsfossen&#45;&gt;Rhttps://arnenaesslod.github.io/item/Landscape_Photograph</title>
<path fill="none" stroke="black" d="M1139.86,-1688.36C1203.15,-1667.22 1313.84,-1631.7 1410.6,-1608 1501.95,-1585.63 1525.18,-1579.91 1618.6,-1569 1712.32,-1558.05 1815.18,-1551.51 1907.51,-1547.62"/>
<polygon fill="black" stroke="black" points="1907.72,-1551.11 1917.56,-1547.2 1907.43,-1544.12 1907.72,-1551.11"/>
<text text-anchor="middle" x="1505.6" y="-1611.8" font-family="Times,serif" font-size="14.00">foaf:depiction</text>
</g>
<!-- Rhttps://arnenaesslod.github.io/event/Mardøla_Campaign -->
<g id="node32" class="node"><title>Rhttps://arnenaesslod.github.io/event/Mardøla_Campaign</title>
<ellipse fill="none" stroke="blue" cx="272.326" cy="-605" rx="272.152" ry="18"/>
<text text-anchor="middle" x="272.326" y="-601.3" font-family="Times,serif" font-size="14.00">https://arnenaesslod.github.io/event/Mardøla_Campaign</text>
</g>
<!-- Rhttps://arnenaesslod.github.io/event/Mardøla_Campaign&#45;&gt;Rhttps://arnenaesslod.github.io/person/Arne_Naess -->
<g id="edge35" class="edge"><title>Rhttps://arnenaesslod.github.io/event/Mardøla_Campaign&#45;&gt;Rhttps://arnenaesslod.github.io/person/Arne_Naess</title>
<path fill="none" stroke="black" d="M284.677,-623.045C318.949,-675.697 427.385,-829.3 562.652,-891 680.36,-944.691 828.471,-951.139 937.083,-946.228"/>
<polygon fill="black" stroke="black" points="937.32,-949.72 947.137,-945.736 936.978,-942.729 937.32,-949.72"/>
<text text-anchor="middle" x="663.152" y="-944.8" font-family="Times,serif" font-size="14.00">bio:principal</text>
</g>
<!-- Rbio:GroupEvent -->
<g id="node33" class="node"><title>Rbio:GroupEvent</title>
<ellipse fill="none" stroke="blue" cx="1087.12" cy="-877" rx="83.6854" ry="18"/>
<text text-anchor="middle" x="1087.12" y="-873.3" font-family="Times,serif" font-size="14.00">bio:GroupEvent</text>
</g>
<!-- Rhttps://arnenaesslod.github.io/event/Mardøla_Campaign&#45;&gt;Rbio:GroupEvent -->
<g id="edge32" class="edge"><title>Rhttps://arnenaesslod.github.io/event/Mardøla_Campaign&#45;&gt;Rbio:GroupEvent</title>
<path fill="none" stroke="black" d="M290.128,-623.162C331.565,-666.613 443.928,-776.471 562.652,-824 706.418,-881.554 889.34,-886.123 996.509,-882.644"/>
<polygon fill="black" stroke="black" points="996.771,-886.137 1006.64,-882.283 996.522,-879.141 996.771,-886.137"/>
<text text-anchor="middle" x="663.152" y="-875.8" font-family="Times,serif" font-size="14.00">rdf:type</text>
</g>
<!-- LMardøla Campaign -->
<g id="node34" class="node"><title>LMardøla Campaign</title>
<polygon fill="none" stroke="black" points="1010.12,-804 1010.12,-840 1164.12,-840 1164.12,-804 1010.12,-804"/>
<text text-anchor="middle" x="1087.12" y="-818.3" font-family="Times,serif" font-size="14.00">Mardøla Campaign</text>
</g>
<!-- Rhttps://arnenaesslod.github.io/event/Mardøla_Campaign&#45;&gt;LMardøla Campaign -->
<g id="edge33" class="edge"><title>Rhttps://arnenaesslod.github.io/event/Mardøla_Campaign&#45;&gt;LMardøla Campaign</title>
<path fill="none" stroke="black" d="M299.463,-622.965C348.606,-655.816 459.167,-725.371 562.652,-760 710.682,-809.536 893.842,-820.586 999.601,-822.444"/>
<polygon fill="black" stroke="black" points="999.853,-825.948 1009.9,-822.6 999.959,-818.949 999.853,-825.948"/>
<text text-anchor="middle" x="663.152" y="-808.8" font-family="Times,serif" font-size="14.00">crm:P102_has_title</text>
</g>
<!-- Rhttps://en.wikipedia.org/wiki/Environmental_movement -->
<g id="node35" class="node"><title>Rhttps://en.wikipedia.org/wiki/Environmental_movement</title>
<ellipse fill="none" stroke="blue" cx="1087.12" cy="-767" rx="269.152" ry="18"/>
<text text-anchor="middle" x="1087.12" y="-763.3" font-family="Times,serif" font-size="14.00">https://en.wikipedia.org/wiki/Environmental_movement</text>
</g>
<!-- Rhttps://arnenaesslod.github.io/event/Mardøla_Campaign&#45;&gt;Rhttps://en.wikipedia.org/wiki/Environmental_movement -->
<g id="edge34" class="edge"><title>Rhttps://arnenaesslod.github.io/event/Mardøla_Campaign&#45;&gt;Rhttps://en.wikipedia.org/wiki/Environmental_movement</title>
<path fill="none" stroke="black" d="M318.751,-622.905C375.165,-644.551 474.716,-680.829 562.652,-703 665.438,-728.915 782.322,-744.48 879.528,-753.756"/>
<polygon fill="black" stroke="black" points="879.49,-757.268 889.773,-754.717 880.144,-750.298 879.49,-757.268"/>
<text text-anchor="middle" x="663.152" y="-744.8" font-family="Times,serif" font-size="14.00">dcterms:subject</text>
</g>
<!-- Rhttps://arnenaesslod.github.io/person/Sigmund_Kvaløy_Setreng -->
<g id="node36" class="node"><title>Rhttps://arnenaesslod.github.io/person/Sigmund_Kvaløy_Setreng</title>
<ellipse fill="none" stroke="blue" cx="1087.12" cy="-713" rx="305.446" ry="18"/>
<text text-anchor="middle" x="1087.12" y="-709.3" font-family="Times,serif" font-size="14.00">https://arnenaesslod.github.io/person/Sigmund_Kvaløy_Setreng</text>
</g>
<!-- Rhttps://arnenaesslod.github.io/event/Mardøla_Campaign&#45;&gt;Rhttps://arnenaesslod.github.io/person/Sigmund_Kvaløy_Setreng -->
<g id="edge36" class="edge"><title>Rhttps://arnenaesslod.github.io/event/Mardøla_Campaign&#45;&gt;Rhttps://arnenaesslod.github.io/person/Sigmund_Kvaløy_Setreng</title>
<path fill="none" stroke="black" d="M364.392,-621.975C421.292,-632.352 496.136,-645.586 562.652,-656 659.712,-671.197 684.028,-674.991 781.652,-686 818.562,-690.162 858.05,-694.067 895.947,-697.544"/>
<polygon fill="black" stroke="black" points="895.79,-701.044 906.066,-698.465 896.425,-694.073 895.79,-701.044"/>
<text text-anchor="middle" x="663.152" y="-687.8" font-family="Times,serif" font-size="14.00">bio:principal</text>
</g>
<!-- Rhttps://arnenaesslod.github.io/person/Odd_Einar_Dørum -->
<g id="node37" class="node"><title>Rhttps://arnenaesslod.github.io/person/Odd_Einar_Dørum</title>
<ellipse fill="none" stroke="blue" cx="1087.12" cy="-659" rx="272.952" ry="18"/>
<text text-anchor="middle" x="1087.12" y="-655.3" font-family="Times,serif" font-size="14.00">https://arnenaesslod.github.io/person/Odd_Einar_Dørum</text>
</g>
<!-- Rhttps://arnenaesslod.github.io/event/Mardøla_Campaign&#45;&gt;Rhttps://arnenaesslod.github.io/person/Odd_Einar_Dørum -->
<g id="edge37" class="edge"><title>Rhttps://arnenaesslod.github.io/event/Mardøla_Campaign&#45;&gt;Rhttps://arnenaesslod.github.io/person/Odd_Einar_Dørum</title>
<path fill="none" stroke="black" d="M464.919,-617.729C590.925,-626.1 755.594,-637.041 883.731,-645.554"/>
<polygon fill="black" stroke="black" points="883.849,-649.069 894.059,-646.24 884.313,-642.084 883.849,-649.069"/>
<text text-anchor="middle" x="663.152" y="-640.8" font-family="Times,serif" font-size="14.00">bio:principal</text>
</g>
<!-- Rdbc:Civil_disobedience -->
<g id="node38" class="node"><title>Rdbc:Civil_disobedience</title>
<ellipse fill="none" stroke="blue" cx="1087.12" cy="-605" rx="118.079" ry="18"/>
<text text-anchor="middle" x="1087.12" y="-601.3" font-family="Times,serif" font-size="14.00">dbc:Civil_disobedience</text>
</g>
<!-- Rhttps://arnenaesslod.github.io/event/Mardøla_Campaign&#45;&gt;Rdbc:Civil_disobedience -->
<g id="edge38" class="edge"><title>Rhttps://arnenaesslod.github.io/event/Mardøla_Campaign&#45;&gt;Rdbc:Civil_disobedience</title>
<path fill="none" stroke="black" d="M544.823,-605C684.475,-605 848.098,-605 958.597,-605"/>
<polygon fill="black" stroke="black" points="958.788,-608.5 968.788,-605 958.788,-601.5 958.788,-608.5"/>
<text text-anchor="middle" x="663.152" y="-608.8" font-family="Times,serif" font-size="14.00">crm:P17_was_motivated_by</text>
</g>
<!-- LCooperation groups for nature and environmental protection -->
<g id="node39" class="node"><title>LCooperation groups for nature and environmental protection</title>
<polygon fill="none" stroke="black" points="861.125,-532 861.125,-568 1313.12,-568 1313.12,-532 861.125,-532"/>
<text text-anchor="middle" x="1087.12" y="-546.3" font-family="Times,serif" font-size="14.00">Cooperation groups for nature and environmental protection</text>
</g>
<!-- Rhttps://arnenaesslod.github.io/event/Mardøla_Campaign&#45;&gt;LCooperation groups for nature and environmental protection -->
<g id="edge39" class="edge"><title>Rhttps://arnenaesslod.github.io/event/Mardøla_Campaign&#45;&gt;LCooperation groups for nature and environmental protection</title>
<path fill="none" stroke="black" d="M463.378,-592.14C578.943,-584.32 727.452,-574.27 850.457,-565.947"/>
<polygon fill="black" stroke="black" points="851.028,-569.416 860.769,-565.249 850.556,-562.432 851.028,-569.416"/>
<text text-anchor="middle" x="663.152" y="-588.8" font-family="Times,serif" font-size="14.00">bio:officiator</text>
</g>
<!-- Rgn:3158545 -->
<g id="node40" class="node"><title>Rgn:3158545</title>
<ellipse fill="none" stroke="blue" cx="1087.12" cy="-495" rx="66.0889" ry="18"/>
<text text-anchor="middle" x="1087.12" y="-491.3" font-family="Times,serif" font-size="14.00">gn:3158545</text>
</g>
<!-- Rhttps://arnenaesslod.github.io/event/Mardøla_Campaign&#45;&gt;Rgn:3158545 -->
<g id="edge40" class="edge"><title>Rhttps://arnenaesslod.github.io/event/Mardøla_Campaign&#45;&gt;Rgn:3158545</title>
<path fill="none" stroke="black" d="M365.397,-588.059C422.188,-577.786 496.561,-564.651 562.652,-554 659.766,-538.349 683.955,-533.46 781.652,-522 860.411,-512.761 950.965,-505.109 1012.71,-500.338"/>
<polygon fill="black" stroke="black" points="1013.04,-503.823 1022.75,-499.569 1012.51,-496.843 1013.04,-503.823"/>
<text text-anchor="middle" x="663.152" y="-557.8" font-family="Times,serif" font-size="14.00">bio:place</text>
</g>
<!-- L1970&#45;07&#45;27|Datatype: xsd:date -->
<g id="node41" class="node"><title>L1970&#45;07&#45;27|Datatype: xsd:date</title>
<polygon fill="none" stroke="black" points="1011.12,-412 1011.12,-458 1163.12,-458 1163.12,-412 1011.12,-412"/>
<text text-anchor="middle" x="1087.12" y="-442.8" font-family="Times,serif" font-size="14.00">1970&#45;07&#45;27</text>
<polyline fill="none" stroke="black" points="1011.12,-435 1163.12,-435 "/>
<text text-anchor="middle" x="1087.12" y="-419.8" font-family="Times,serif" font-size="14.00">Datatype: xsd:date</text>
</g>
<!-- Rhttps://arnenaesslod.github.io/event/Mardøla_Campaign&#45;&gt;L1970&#45;07&#45;27|Datatype: xsd:date -->
<g id="edge41" class="edge"><title>Rhttps://arnenaesslod.github.io/event/Mardøla_Campaign&#45;&gt;L1970&#45;07&#45;27|Datatype: xsd:date</title>
<path fill="none" stroke="black" d="M318.255,-587.146C374.577,-565.345 474.451,-528.592 562.652,-506 714.194,-467.184 896.186,-448.574 1000.77,-440.475"/>
<polygon fill="black" stroke="black" points="1001.26,-443.949 1010.96,-439.701 1000.72,-436.969 1001.26,-443.949"/>
<text text-anchor="middle" x="663.152" y="-509.8" font-family="Times,serif" font-size="14.00">bio:date</text>
</g>
<!-- Rhttps://arnenaesslod.github.io/item/Campaign_Photograph -->
<g id="node42" class="node"><title>Rhttps://arnenaesslod.github.io/item/Campaign_Photograph</title>
<ellipse fill="none" stroke="blue" cx="1087.12" cy="-375" rx="282.95" ry="18"/>
<text text-anchor="middle" x="1087.12" y="-371.3" font-family="Times,serif" font-size="14.00">https://arnenaesslod.github.io/item/Campaign_Photograph</text>
</g>
<!-- Rhttps://arnenaesslod.github.io/event/Mardøla_Campaign&#45;&gt;Rhttps://arnenaesslod.github.io/item/Campaign_Photograph -->
<g id="edge42" class="edge"><title>Rhttps://arnenaesslod.github.io/event/Mardøla_Campaign&#45;&gt;Rhttps://arnenaesslod.github.io/item/Campaign_Photograph</title>
<path fill="none" stroke="black" d="M300.421,-586.969C350.238,-554.614 460.642,-486.578 562.652,-449 653.644,-415.48 758.69,-397.024 850.691,-386.907"/>
<polygon fill="black" stroke="black" points="851.124,-390.38 860.694,-385.834 850.378,-383.42 851.124,-390.38"/>
<text text-anchor="middle" x="663.152" y="-452.8" font-family="Times,serif" font-size="14.00">foaf:depiction</text>
</g>
<!-- Rhttps://arnenaesslod.github.io/item/Campaign_Poster -->
<g id="node43" class="node"><title>Rhttps://arnenaesslod.github.io/item/Campaign_Poster</title>
<ellipse fill="none" stroke="blue" cx="1087.12" cy="-321" rx="258.854" ry="18"/>
<text text-anchor="middle" x="1087.12" y="-317.3" font-family="Times,serif" font-size="14.00">https://arnenaesslod.github.io/item/Campaign_Poster</text>
</g>
<!-- Rhttps://arnenaesslod.github.io/event/Mardøla_Campaign&#45;&gt;Rhttps://arnenaesslod.github.io/item/Campaign_Poster -->
<g id="edge43" class="edge"><title>Rhttps://arnenaesslod.github.io/event/Mardøla_Campaign&#45;&gt;Rhttps://arnenaesslod.github.io/item/Campaign_Poster</title>
<path fill="none" stroke="black" d="M289.843,-587.016C331.077,-543.398 443.795,-431.84 562.652,-381 641.935,-347.087 733.81,-330.014 818.252,-321.978"/>
<polygon fill="black" stroke="black" points="818.605,-325.46 828.246,-321.065 817.969,-318.489 818.605,-325.46"/>
<text text-anchor="middle" x="663.152" y="-384.8" font-family="Times,serif" font-size="14.00">foaf:depiction</text>
</g>
<!-- Rhttps://no.wikipedia.org/wiki/Mard%C3%B8la&#45;aksjonen -->
<g id="node44" class="node"><title>Rhttps://no.wikipedia.org/wiki/Mard%C3%B8la&#45;aksjonen</title>
<ellipse fill="none" stroke="blue" cx="1087.12" cy="-267" rx="268.352" ry="18"/>
<text text-anchor="middle" x="1087.12" y="-263.3" font-family="Times,serif" font-size="14.00">https://no.wikipedia.org/wiki/Mard%C3%B8la&#45;aksjonen</text>
</g>
<!-- Rhttps://arnenaesslod.github.io/event/Mardøla_Campaign&#45;&gt;Rhttps://no.wikipedia.org/wiki/Mard%C3%B8la&#45;aksjonen -->
<g id="edge44" class="edge"><title>Rhttps://arnenaesslod.github.io/event/Mardøla_Campaign&#45;&gt;Rhttps://no.wikipedia.org/wiki/Mard%C3%B8la&#45;aksjonen</title>
<path fill="none" stroke="black" d="M284.322,-586.889C318.009,-533.286 425.854,-375.173 562.652,-311 673.634,-258.937 812.385,-249.416 919.149,-252.116"/>
<polygon fill="black" stroke="black" points="919.281,-255.621 929.379,-252.414 919.485,-248.624 919.281,-255.621"/>
<text text-anchor="middle" x="663.152" y="-314.8" font-family="Times,serif" font-size="14.00">dbo:wikipageExternalLink</text>
</g>
</g>
</svg>

