<?xml version="1.0" encoding="UTF-8" standalone="no"?>
<!DOCTYPE svg PUBLIC "-//W3C//DTD SVG 1.1//EN"
 "http://www.w3.org/Graphics/SVG/1.1/DTD/svg11.dtd">
<!-- Generated by graphviz version 2.38.0 (20140413.2041)
 -->
<!-- Title: %3 Pages: 1 -->
<svg width="2882pt" height="1952pt"
 viewBox="0.00 0.00 2881.79 1952.00" xmlns="http://www.w3.org/2000/svg" xmlns:xlink="http://www.w3.org/1999/xlink">
<g id="graph0" class="graph" transform="scale(1 1) rotate(0) translate(4 1948)">
<title>%3</title>
<polygon fill="white" stroke="none" points="-4,4 -4,-1948 2877.79,-1948 2877.79,4 -4,4"/>
<text text-anchor="middle" x="1436.89" y="-217.8" font-family="Times,serif" font-size="14.00">Namespaces:</text>
<text text-anchor="middle" x="1436.89" y="-202.8" font-family="Times,serif" font-size="14.00">rdf: https://www.w3.org/TR/rdf&#45;schema/#</text>
<text text-anchor="middle" x="1436.89" y="-187.8" font-family="Times,serif" font-size="14.00">foaf: https://xmlns.com/foaf/0.1/</text>
<text text-anchor="middle" x="1436.89" y="-172.8" font-family="Times,serif" font-size="14.00">gn: http://www.geonames.org/ontology</text>
<text text-anchor="middle" x="1436.89" y="-157.8" font-family="Times,serif" font-size="14.00">dbo: http://dbpedia.org/ontology/</text>
<text text-anchor="middle" x="1436.89" y="-142.8" font-family="Times,serif" font-size="14.00">person: http://www.w3.org/ns/person/</text>
<text text-anchor="middle" x="1436.89" y="-127.8" font-family="Times,serif" font-size="14.00">gndo: https://d&#45;nb.info/standards/elementset/gnd#</text>
<text text-anchor="middle" x="1436.89" y="-112.8" font-family="Times,serif" font-size="14.00">core: https://www.bbc.co.uk/ontologies/coreconcepts/</text>
<text text-anchor="middle" x="1436.89" y="-97.8" font-family="Times,serif" font-size="14.00">xsd: http://www.w3.org/2001/XMLSchema</text>
<text text-anchor="middle" x="1436.89" y="-82.8" font-family="Times,serif" font-size="14.00">geo: http://www.w3.org/2003/01/geo/wgs84_pos#</text>
<text text-anchor="middle" x="1436.89" y="-67.8" font-family="Times,serif" font-size="14.00">schema: http://schema.org/</text>
<text text-anchor="middle" x="1436.89" y="-52.8" font-family="Times,serif" font-size="14.00">crm: http://www.cidoc&#45;crm.org/cidoc&#45;crm/</text>
<text text-anchor="middle" x="1436.89" y="-37.8" font-family="Times,serif" font-size="14.00">dcterms: http://purl.org/dc/terms/</text>
<text text-anchor="middle" x="1436.89" y="-22.8" font-family="Times,serif" font-size="14.00">bio: http://purl.org/vocab/bio/0.1/</text>
<text text-anchor="middle" x="1436.89" y="-7.8" font-family="Times,serif" font-size="14.00">dbc: http://dbpedia.org/resource/Category:</text>
<!-- Rhttp://minsikchoi.com/arnenaesslod/person/Arne_Naess -->
<g id="node1" class="node"><title>Rhttp://minsikchoi.com/arnenaesslod/person/Arne_Naess</title>
<ellipse fill="none" stroke="blue" cx="1169.02" cy="-931" rx="270.252" ry="18"/>
<text text-anchor="middle" x="1169.02" y="-927.3" font-family="Times,serif" font-size="14.00">http://minsikchoi.com/arnenaesslod/person/Arne_Naess</text>
</g>
<!-- Rfoaf:Person -->
<g id="node2" class="node"><title>Rfoaf:Person</title>
<ellipse fill="none" stroke="blue" cx="2300.79" cy="-1418" rx="63.0888" ry="18"/>
<text text-anchor="middle" x="2300.79" y="-1414.3" font-family="Times,serif" font-size="14.00">foaf:Person</text>
</g>
<!-- Rhttp://minsikchoi.com/arnenaesslod/person/Arne_Naess&#45;&gt;Rfoaf:Person -->
<g id="edge1" class="edge"><title>Rhttp://minsikchoi.com/arnenaesslod/person/Arne_Naess&#45;&gt;Rfoaf:Person</title>
<path fill="none" stroke="black" d="M1177.69,-949.416C1208.26,-1020.12 1329.06,-1275.27 1519.79,-1376 1550.79,-1392.37 2040.79,-1409.7 2227.92,-1415.76"/>
<polygon fill="black" stroke="black" points="2227.83,-1419.26 2237.94,-1416.08 2228.05,-1412.26 2227.83,-1419.26"/>
<text text-anchor="middle" x="1614.79" y="-1398.8" font-family="Times,serif" font-size="14.00">rdf:type</text>
</g>
<!-- LArne -->
<g id="node3" class="node"><title>LArne</title>
<polygon fill="none" stroke="black" points="2273.79,-1345 2273.79,-1381 2327.79,-1381 2327.79,-1345 2273.79,-1345"/>
<text text-anchor="middle" x="2300.79" y="-1359.3" font-family="Times,serif" font-size="14.00">Arne</text>
</g>
<!-- Rhttp://minsikchoi.com/arnenaesslod/person/Arne_Naess&#45;&gt;LArne -->
<g id="edge2" class="edge"><title>Rhttp://minsikchoi.com/arnenaesslod/person/Arne_Naess&#45;&gt;LArne</title>
<path fill="none" stroke="black" d="M1179.54,-949.376C1214.41,-1014.43 1342.37,-1234.54 1519.79,-1321 1653.02,-1385.93 2127.38,-1370.6 2263.2,-1364.73"/>
<polygon fill="black" stroke="black" points="2263.65,-1368.22 2273.48,-1364.28 2263.34,-1361.22 2263.65,-1368.22"/>
<text text-anchor="middle" x="1614.79" y="-1362.8" font-family="Times,serif" font-size="14.00">foaf:firstName</text>
</g>
<!-- LNaess -->
<g id="node4" class="node"><title>LNaess</title>
<polygon fill="none" stroke="black" points="2270.29,-1290 2270.29,-1326 2331.29,-1326 2331.29,-1290 2270.29,-1290"/>
<text text-anchor="middle" x="2300.79" y="-1304.3" font-family="Times,serif" font-size="14.00">Naess</text>
</g>
<!-- Rhttp://minsikchoi.com/arnenaesslod/person/Arne_Naess&#45;&gt;LNaess -->
<g id="edge3" class="edge"><title>Rhttp://minsikchoi.com/arnenaesslod/person/Arne_Naess&#45;&gt;LNaess</title>
<path fill="none" stroke="black" d="M1181.88,-949.227C1221.35,-1008.07 1355.16,-1193.37 1519.79,-1266 1654.16,-1325.29 2119.56,-1314.31 2259.61,-1309.53"/>
<polygon fill="black" stroke="black" points="2260.01,-1313.02 2269.88,-1309.17 2259.76,-1306.03 2260.01,-1313.02"/>
<text text-anchor="middle" x="1614.79" y="-1305.8" font-family="Times,serif" font-size="14.00">foaf:lastName</text>
</g>
<!-- LMale -->
<g id="node5" class="node"><title>LMale</title>
<polygon fill="none" stroke="black" points="2273.79,-1235 2273.79,-1271 2327.79,-1271 2327.79,-1235 2273.79,-1235"/>
<text text-anchor="middle" x="2300.79" y="-1249.3" font-family="Times,serif" font-size="14.00">Male</text>
</g>
<!-- Rhttp://minsikchoi.com/arnenaesslod/person/Arne_Naess&#45;&gt;LMale -->
<g id="edge4" class="edge"><title>Rhttp://minsikchoi.com/arnenaesslod/person/Arne_Naess&#45;&gt;LMale</title>
<path fill="none" stroke="black" d="M1187.33,-948.974C1235.11,-997.372 1374.93,-1130.89 1519.79,-1192 1786.18,-1304.38 2148.82,-1272.05 2263.49,-1257.96"/>
<polygon fill="black" stroke="black" points="2264.01,-1261.42 2273.49,-1256.7 2263.13,-1254.48 2264.01,-1261.42"/>
<text text-anchor="middle" x="1614.79" y="-1250.8" font-family="Times,serif" font-size="14.00">foaf:gender</text>
</g>
<!-- Rgn:3138308 -->
<g id="node6" class="node"><title>Rgn:3138308</title>
<ellipse fill="none" stroke="blue" cx="2300.79" cy="-1198" rx="66.0889" ry="18"/>
<text text-anchor="middle" x="2300.79" y="-1194.3" font-family="Times,serif" font-size="14.00">gn:3138308</text>
</g>
<!-- Rhttp://minsikchoi.com/arnenaesslod/person/Arne_Naess&#45;&gt;Rgn:3138308 -->
<g id="edge5" class="edge"><title>Rhttp://minsikchoi.com/arnenaesslod/person/Arne_Naess&#45;&gt;Rgn:3138308</title>
<path fill="none" stroke="black" d="M1197.36,-949.176C1254.74,-986.555 1392.92,-1072.59 1519.79,-1121 1765.37,-1214.7 2084.44,-1210.84 2226.27,-1203.3"/>
<polygon fill="black" stroke="black" points="2226.79,-1206.77 2236.58,-1202.72 2226.4,-1199.78 2226.79,-1206.77"/>
<text text-anchor="middle" x="1614.79" y="-1176.8" font-family="Times,serif" font-size="14.00">person:placeOfBirth</text>
</g>
<!-- Rgn:3144096 -->
<g id="node7" class="node"><title>Rgn:3144096</title>
<ellipse fill="none" stroke="blue" cx="2300.79" cy="-1474" rx="66.0889" ry="18"/>
<text text-anchor="middle" x="2300.79" y="-1470.3" font-family="Times,serif" font-size="14.00">gn:3144096</text>
</g>
<!-- Rhttp://minsikchoi.com/arnenaesslod/person/Arne_Naess&#45;&gt;Rgn:3144096 -->
<g id="edge6" class="edge"><title>Rhttp://minsikchoi.com/arnenaesslod/person/Arne_Naess&#45;&gt;Rgn:3144096</title>
<path fill="none" stroke="black" d="M1175.43,-949.154C1199.77,-1027.11 1307.27,-1334.83 1519.79,-1452 1580.37,-1485.4 2040.86,-1479.51 2224.51,-1475.76"/>
<polygon fill="black" stroke="black" points="2224.7,-1479.26 2234.63,-1475.55 2224.56,-1472.26 2224.7,-1479.26"/>
<text text-anchor="middle" x="1614.79" y="-1478.8" font-family="Times,serif" font-size="14.00">person:countryOfBirth</text>
</g>
<!-- Rhttp://minsikchoi.com/arnenaesslod/person/Arne_Naess&#45;&gt;Rgn:3144096 -->
<g id="edge13" class="edge"><title>Rhttp://minsikchoi.com/arnenaesslod/person/Arne_Naess&#45;&gt;Rgn:3144096</title>
<path fill="none" stroke="black" d="M1176.72,-949.22C1204.88,-1022.85 1321.44,-1299.94 1519.79,-1414 1593.36,-1456.3 1629.89,-1404.39 1709.79,-1433 1718.84,-1436.24 1718.66,-1441.98 1727.79,-1445 1901.04,-1502.29 2119.85,-1492.34 2229.86,-1482.12"/>
<polygon fill="black" stroke="black" points="2230.22,-1485.6 2239.84,-1481.16 2229.55,-1478.63 2230.22,-1485.6"/>
<text text-anchor="middle" x="1614.79" y="-1436.8" font-family="Times,serif" font-size="14.00">gndo:placeOfActivity</text>
</g>
<!-- L1912&#45;01&#45;27|Datatype: xsd:date -->
<g id="node8" class="node"><title>L1912&#45;01&#45;27|Datatype: xsd:date</title>
<polygon fill="none" stroke="black" points="2224.79,-1115 2224.79,-1161 2376.79,-1161 2376.79,-1115 2224.79,-1115"/>
<text text-anchor="middle" x="2300.79" y="-1145.8" font-family="Times,serif" font-size="14.00">1912&#45;01&#45;27</text>
<polyline fill="none" stroke="black" points="2224.79,-1138 2376.79,-1138 "/>
<text text-anchor="middle" x="2300.79" y="-1122.8" font-family="Times,serif" font-size="14.00">Datatype: xsd:date</text>
</g>
<!-- Rhttp://minsikchoi.com/arnenaesslod/person/Arne_Naess&#45;&gt;L1912&#45;01&#45;27|Datatype: xsd:date -->
<g id="edge7" class="edge"><title>Rhttp://minsikchoi.com/arnenaesslod/person/Arne_Naess&#45;&gt;L1912&#45;01&#45;27|Datatype: xsd:date</title>
<path fill="none" stroke="black" d="M1214.18,-948.829C1279.98,-974.956 1408.03,-1024.1 1519.79,-1057 1610.8,-1083.79 1633.87,-1091.55 1727.79,-1105 1899.18,-1129.54 2101.95,-1135.97 2214.19,-1137.56"/>
<polygon fill="black" stroke="black" points="2214.38,-1141.07 2224.43,-1137.7 2214.48,-1134.07 2214.38,-1141.07"/>
<text text-anchor="middle" x="1614.79" y="-1105.8" font-family="Times,serif" font-size="14.00">gndo:dataOfBirth</text>
</g>
<!-- L2009&#45;01&#45;12|Datatype: xsd:date -->
<g id="node9" class="node"><title>L2009&#45;01&#45;12|Datatype: xsd:date</title>
<polygon fill="none" stroke="black" points="2224.79,-1050 2224.79,-1096 2376.79,-1096 2376.79,-1050 2224.79,-1050"/>
<text text-anchor="middle" x="2300.79" y="-1080.8" font-family="Times,serif" font-size="14.00">2009&#45;01&#45;12</text>
<polyline fill="none" stroke="black" points="2224.79,-1073 2376.79,-1073 "/>
<text text-anchor="middle" x="2300.79" y="-1057.8" font-family="Times,serif" font-size="14.00">Datatype: xsd:date</text>
</g>
<!-- Rhttp://minsikchoi.com/arnenaesslod/person/Arne_Naess&#45;&gt;L2009&#45;01&#45;12|Datatype: xsd:date -->
<g id="edge8" class="edge"><title>Rhttp://minsikchoi.com/arnenaesslod/person/Arne_Naess&#45;&gt;L2009&#45;01&#45;12|Datatype: xsd:date</title>
<path fill="none" stroke="black" d="M1250.47,-948.204C1321.28,-963.192 1427.24,-985.246 1519.79,-1003 1612,-1020.69 1634.53,-1029.05 1727.79,-1040 1899.75,-1060.18 2102.31,-1068.18 2214.36,-1071.23"/>
<polygon fill="black" stroke="black" points="2214.5,-1074.73 2224.59,-1071.5 2214.68,-1067.73 2214.5,-1074.73"/>
<text text-anchor="middle" x="1614.79" y="-1041.8" font-family="Times,serif" font-size="14.00">gndo:dataOfDeath</text>
</g>
<!-- Rgn:3143244 -->
<g id="node10" class="node"><title>Rgn:3143244</title>
<ellipse fill="none" stroke="blue" cx="2300.79" cy="-1013" rx="66.0889" ry="18"/>
<text text-anchor="middle" x="2300.79" y="-1009.3" font-family="Times,serif" font-size="14.00">gn:3143244</text>
</g>
<!-- Rhttp://minsikchoi.com/arnenaesslod/person/Arne_Naess&#45;&gt;Rgn:3143244 -->
<g id="edge9" class="edge"><title>Rhttp://minsikchoi.com/arnenaesslod/person/Arne_Naess&#45;&gt;Rgn:3143244</title>
<path fill="none" stroke="black" d="M1307.1,-946.489C1419.9,-958.76 1584.04,-975.527 1727.79,-986 1905.49,-998.947 2114.72,-1007 2224.24,-1010.66"/>
<polygon fill="black" stroke="black" points="2224.42,-1014.17 2234.53,-1011.01 2224.65,-1007.18 2224.42,-1014.17"/>
<text text-anchor="middle" x="1614.79" y="-987.8" font-family="Times,serif" font-size="14.00">person:placeOfDeath</text>
</g>
<!-- Rgn:3154173 -->
<g id="node11" class="node"><title>Rgn:3154173</title>
<ellipse fill="none" stroke="blue" cx="2300.79" cy="-959" rx="66.0889" ry="18"/>
<text text-anchor="middle" x="2300.79" y="-955.3" font-family="Times,serif" font-size="14.00">gn:3154173</text>
</g>
<!-- Rhttp://minsikchoi.com/arnenaesslod/person/Arne_Naess&#45;&gt;Rgn:3154173 -->
<g id="edge10" class="edge"><title>Rhttp://minsikchoi.com/arnenaesslod/person/Arne_Naess&#45;&gt;Rgn:3154173</title>
<path fill="none" stroke="black" d="M1422.86,-937.266C1680.15,-943.643 2063.31,-953.139 2224.28,-957.129"/>
<polygon fill="black" stroke="black" points="2224.47,-960.634 2234.56,-957.383 2224.65,-953.637 2224.47,-960.634"/>
<text text-anchor="middle" x="1614.79" y="-948.8" font-family="Times,serif" font-size="14.00">dbo:livingPlace</text>
</g>
<!-- LEnvironmental Philosophy -->
<g id="node12" class="node"><title>LEnvironmental Philosophy</title>
<polygon fill="none" stroke="black" points="2198.29,-886 2198.29,-922 2403.29,-922 2403.29,-886 2198.29,-886"/>
<text text-anchor="middle" x="2300.79" y="-900.3" font-family="Times,serif" font-size="14.00">Environmental Philosophy</text>
</g>
<!-- Rhttp://minsikchoi.com/arnenaesslod/person/Arne_Naess&#45;&gt;LEnvironmental Philosophy -->
<g id="edge11" class="edge"><title>Rhttp://minsikchoi.com/arnenaesslod/person/Arne_Naess&#45;&gt;LEnvironmental Philosophy</title>
<path fill="none" stroke="black" d="M1421.25,-924.455C1454.39,-923.615 1487.91,-922.778 1519.79,-922 1757.72,-916.193 2036.5,-909.878 2187.96,-906.487"/>
<polygon fill="black" stroke="black" points="2188.28,-909.981 2198.2,-906.258 2188.12,-902.983 2188.28,-909.981"/>
<text text-anchor="middle" x="1614.79" y="-925.8" font-family="Times,serif" font-size="14.00">foaf:interest</text>
</g>
<!-- LEnvironmental Ethics -->
<g id="node13" class="node"><title>LEnvironmental Ethics</title>
<polygon fill="none" stroke="black" points="2214.29,-831 2214.29,-867 2387.29,-867 2387.29,-831 2214.29,-831"/>
<text text-anchor="middle" x="2300.79" y="-845.3" font-family="Times,serif" font-size="14.00">Environmental Ethics</text>
</g>
<!-- Rhttp://minsikchoi.com/arnenaesslod/person/Arne_Naess&#45;&gt;LEnvironmental Ethics -->
<g id="edge12" class="edge"><title>Rhttp://minsikchoi.com/arnenaesslod/person/Arne_Naess&#45;&gt;LEnvironmental Ethics</title>
<path fill="none" stroke="black" d="M1381.4,-919.84C1421.55,-916.015 1463.1,-910.883 1501.79,-904 1509.96,-902.546 1511.64,-900.572 1519.79,-899 1611.11,-881.385 1635.07,-883.307 1727.79,-876 1894.94,-862.826 2090.12,-855.291 2203.85,-851.684"/>
<polygon fill="black" stroke="black" points="2204.03,-855.18 2213.92,-851.368 2203.81,-848.183 2204.03,-855.18"/>
<text text-anchor="middle" x="1614.79" y="-902.8" font-family="Times,serif" font-size="14.00">foaf:interest</text>
</g>
<!-- Rgn:1168579 -->
<g id="node14" class="node"><title>Rgn:1168579</title>
<ellipse fill="none" stroke="blue" cx="2300.79" cy="-794" rx="66.0889" ry="18"/>
<text text-anchor="middle" x="2300.79" y="-790.3" font-family="Times,serif" font-size="14.00">gn:1168579</text>
</g>
<!-- Rhttp://minsikchoi.com/arnenaesslod/person/Arne_Naess&#45;&gt;Rgn:1168579 -->
<g id="edge14" class="edge"><title>Rhttp://minsikchoi.com/arnenaesslod/person/Arne_Naess&#45;&gt;Rgn:1168579</title>
<path fill="none" stroke="black" d="M1262.06,-947.917C1334.19,-955.857 1433.43,-954.442 1501.79,-904 1519.12,-891.21 1503.11,-872.636 1519.79,-859 1626.28,-771.915 2052.21,-781.921 2225.7,-789.914"/>
<polygon fill="black" stroke="black" points="2225.61,-793.414 2235.76,-790.389 2225.94,-786.421 2225.61,-793.414"/>
<text text-anchor="middle" x="1614.79" y="-862.8" font-family="Times,serif" font-size="14.00">gndo:placeOfActivity</text>
</g>
<!-- Rhttp://minsikchoi.com/arnenaesslod/concept/Deep_Ecology -->
<g id="node15" class="node"><title>Rhttp://minsikchoi.com/arnenaesslod/concept/Deep_Ecology</title>
<ellipse fill="none" stroke="blue" cx="2300.79" cy="-740" rx="285.149" ry="18"/>
<text text-anchor="middle" x="2300.79" y="-736.3" font-family="Times,serif" font-size="14.00">http://minsikchoi.com/arnenaesslod/concept/Deep_Ecology</text>
</g>
<!-- Rhttp://minsikchoi.com/arnenaesslod/person/Arne_Naess&#45;&gt;Rhttp://minsikchoi.com/arnenaesslod/concept/Deep_Ecology -->
<g id="edge15" class="edge"><title>Rhttp://minsikchoi.com/arnenaesslod/person/Arne_Naess&#45;&gt;Rhttp://minsikchoi.com/arnenaesslod/concept/Deep_Ecology</title>
<path fill="none" stroke="black" d="M1242.33,-948.379C1317.31,-961.705 1433,-968.357 1501.79,-904 1541.49,-866.854 1480,-820.058 1519.79,-783 1604.14,-704.424 1920.44,-711.246 2123.43,-724.697"/>
<polygon fill="black" stroke="black" points="2123.4,-728.203 2133.61,-725.383 2123.87,-721.218 2123.4,-728.203"/>
<text text-anchor="middle" x="1614.79" y="-786.8" font-family="Times,serif" font-size="14.00">dbo:influenced</text>
</g>
<!-- Rhttp://minsikchoi.com/arnenaesslod/item/Documentary_Film_about_Arne_Naess -->
<g id="node16" class="node"><title>Rhttp://minsikchoi.com/arnenaesslod/item/Documentary_Film_about_Arne_Naess</title>
<ellipse fill="none" stroke="blue" cx="2300.79" cy="-686" rx="384.232" ry="18"/>
<text text-anchor="middle" x="2300.79" y="-682.3" font-family="Times,serif" font-size="14.00">http://minsikchoi.com/arnenaesslod/item/Documentary_Film_about_Arne_Naess</text>
</g>
<!-- Rhttp://minsikchoi.com/arnenaesslod/person/Arne_Naess&#45;&gt;Rhttp://minsikchoi.com/arnenaesslod/item/Documentary_Film_about_Arne_Naess -->
<g id="edge16" class="edge"><title>Rhttp://minsikchoi.com/arnenaesslod/person/Arne_Naess&#45;&gt;Rhttp://minsikchoi.com/arnenaesslod/item/Documentary_Film_about_Arne_Naess</title>
<path fill="none" stroke="black" d="M1239.27,-948.427C1314.72,-962.837 1433.72,-971.394 1501.79,-904 1533.03,-873.07 1487.72,-737.071 1519.79,-707 1554.22,-674.707 1782.43,-671.356 1983.17,-675.003"/>
<polygon fill="black" stroke="black" points="1983.25,-678.505 1993.31,-675.193 1983.38,-671.506 1983.25,-678.505"/>
<text text-anchor="middle" x="1614.79" y="-710.8" font-family="Times,serif" font-size="14.00">foaf:depiction</text>
</g>
<!-- LPhilopher -->
<g id="node17" class="node"><title>LPhilopher</title>
<polygon fill="none" stroke="black" points="2257.79,-613 2257.79,-649 2343.79,-649 2343.79,-613 2257.79,-613"/>
<text text-anchor="middle" x="2300.79" y="-627.3" font-family="Times,serif" font-size="14.00">Philopher</text>
</g>
<!-- Rhttp://minsikchoi.com/arnenaesslod/person/Arne_Naess&#45;&gt;LPhilopher -->
<g id="edge17" class="edge"><title>Rhttp://minsikchoi.com/arnenaesslod/person/Arne_Naess&#45;&gt;LPhilopher</title>
<path fill="none" stroke="black" d="M1238.47,-948.453C1314.06,-963.181 1434.02,-972.304 1501.79,-904 1540.24,-865.247 1480.47,-696.872 1519.79,-659 1571.92,-608.782 2080.47,-622.89 2247.17,-628.926"/>
<polygon fill="black" stroke="black" points="2247.52,-632.441 2257.65,-629.311 2247.78,-625.446 2247.52,-632.441"/>
<text text-anchor="middle" x="1614.79" y="-662.8" font-family="Times,serif" font-size="14.00">core:occupation</text>
</g>
<!-- LPhilosopher -->
<g id="node18" class="node"><title>LPhilosopher</title>
<polygon fill="none" stroke="black" points="2250.29,-558 2250.29,-594 2351.29,-594 2351.29,-558 2250.29,-558"/>
<text text-anchor="middle" x="2300.79" y="-572.3" font-family="Times,serif" font-size="14.00">Philosopher</text>
</g>
<!-- Rhttp://minsikchoi.com/arnenaesslod/person/Arne_Naess&#45;&gt;LPhilosopher -->
<g id="edge18" class="edge"><title>Rhttp://minsikchoi.com/arnenaesslod/person/Arne_Naess&#45;&gt;LPhilosopher</title>
<path fill="none" stroke="black" d="M1237.94,-948.472C1313.64,-963.418 1434.24,-972.93 1501.79,-904 1547.76,-857.091 1472.92,-655.006 1519.79,-609 1570.74,-558.991 2066.18,-568.946 2239.94,-574.036"/>
<polygon fill="black" stroke="black" points="2240.08,-577.542 2250.18,-574.341 2240.28,-570.545 2240.08,-577.542"/>
<text text-anchor="middle" x="1614.79" y="-612.8" font-family="Times,serif" font-size="14.00">core:knownFor</text>
</g>
<!-- LWriter -->
<g id="node19" class="node"><title>LWriter</title>
<polygon fill="none" stroke="black" points="2269.29,-503 2269.29,-539 2332.29,-539 2332.29,-503 2269.29,-503"/>
<text text-anchor="middle" x="2300.79" y="-517.3" font-family="Times,serif" font-size="14.00">Writer</text>
</g>
<!-- Rhttp://minsikchoi.com/arnenaesslod/person/Arne_Naess&#45;&gt;LWriter -->
<g id="edge19" class="edge"><title>Rhttp://minsikchoi.com/arnenaesslod/person/Arne_Naess&#45;&gt;LWriter</title>
<path fill="none" stroke="black" d="M1237.37,-948.447C1313.13,-963.569 1434.35,-973.439 1501.79,-904 1528.61,-876.384 1492.51,-585.167 1519.79,-558 1572.37,-505.621 2105.79,-515.781 2258.9,-519.812"/>
<polygon fill="black" stroke="black" points="2259.16,-523.321 2269.26,-520.091 2259.35,-516.323 2259.16,-523.321"/>
<text text-anchor="middle" x="1614.79" y="-561.8" font-family="Times,serif" font-size="14.00">core:knownFor</text>
</g>
<!-- LProfessor -->
<g id="node20" class="node"><title>LProfessor</title>
<polygon fill="none" stroke="black" points="2258.29,-448 2258.29,-484 2343.29,-484 2343.29,-448 2258.29,-448"/>
<text text-anchor="middle" x="2300.79" y="-462.3" font-family="Times,serif" font-size="14.00">Professor</text>
</g>
<!-- Rhttp://minsikchoi.com/arnenaesslod/person/Arne_Naess&#45;&gt;LProfessor -->
<g id="edge20" class="edge"><title>Rhttp://minsikchoi.com/arnenaesslod/person/Arne_Naess&#45;&gt;LProfessor</title>
<path fill="none" stroke="black" d="M1237.12,-948.46C1312.93,-963.697 1434.48,-973.771 1501.79,-904 1532.52,-872.14 1488.76,-537.57 1519.79,-506 1620.6,-403.435 2089.9,-443.38 2247.79,-460.084"/>
<polygon fill="black" stroke="black" points="2247.86,-463.611 2258.18,-461.197 2248.61,-456.651 2247.86,-463.611"/>
<text text-anchor="middle" x="1614.79" y="-509.8" font-family="Times,serif" font-size="14.00">core:knownFor</text>
</g>
<!-- LMountaineer -->
<g id="node21" class="node"><title>LMountaineer</title>
<polygon fill="none" stroke="black" points="2246.29,-393 2246.29,-429 2355.29,-429 2355.29,-393 2246.29,-393"/>
<text text-anchor="middle" x="2300.79" y="-407.3" font-family="Times,serif" font-size="14.00">Mountaineer</text>
</g>
<!-- Rhttp://minsikchoi.com/arnenaesslod/person/Arne_Naess&#45;&gt;LMountaineer -->
<g id="edge21" class="edge"><title>Rhttp://minsikchoi.com/arnenaesslod/person/Arne_Naess&#45;&gt;LMountaineer</title>
<path fill="none" stroke="black" d="M1236.87,-948.481C1312.74,-963.838 1434.64,-974.124 1501.79,-904 1538.39,-865.772 1482.06,-465.124 1519.79,-428 1570.25,-378.339 2058.59,-398.458 2235.88,-407.5"/>
<polygon fill="black" stroke="black" points="2235.94,-411.007 2246.1,-408.026 2236.3,-404.016 2235.94,-411.007"/>
<text text-anchor="middle" x="1614.79" y="-431.8" font-family="Times,serif" font-size="14.00">core:knownFor</text>
</g>
<!-- Rhttps://en.wikipedia.org/wiki/Arne_N%C3%A6ss -->
<g id="node22" class="node"><title>Rhttps://en.wikipedia.org/wiki/Arne_N%C3%A6ss</title>
<ellipse fill="none" stroke="blue" cx="2300.79" cy="-356" rx="235.058" ry="18"/>
<text text-anchor="middle" x="2300.79" y="-352.3" font-family="Times,serif" font-size="14.00">https://en.wikipedia.org/wiki/Arne_N%C3%A6ss</text>
</g>
<!-- Rhttp://minsikchoi.com/arnenaesslod/person/Arne_Naess&#45;&gt;Rhttps://en.wikipedia.org/wiki/Arne_N%C3%A6ss -->
<g id="edge22" class="edge"><title>Rhttp://minsikchoi.com/arnenaesslod/person/Arne_Naess&#45;&gt;Rhttps://en.wikipedia.org/wiki/Arne_N%C3%A6ss</title>
<path fill="none" stroke="black" d="M1236.58,-948.453C1312.46,-963.887 1434.67,-974.345 1501.79,-904 1542,-861.853 1478.52,-421.12 1519.79,-380 1716.33,-184.16 2097.59,-286.296 2242.24,-334.991"/>
<polygon fill="black" stroke="black" points="2241.24,-338.346 2251.83,-338.258 2243.5,-331.72 2241.24,-338.346"/>
<text text-anchor="middle" x="1614.79" y="-383.8" font-family="Times,serif" font-size="14.00">dbo:wikipageExternalLink</text>
</g>
<!-- Rhttp://minsikchoi.com/arnenaesslod/place/Mardalsfossen -->
<g id="node23" class="node"><title>Rhttp://minsikchoi.com/arnenaesslod/place/Mardalsfossen</title>
<ellipse fill="none" stroke="blue" cx="1169.02" cy="-1706" rx="275.651" ry="18"/>
<text text-anchor="middle" x="1169.02" y="-1702.3" font-family="Times,serif" font-size="14.00">http://minsikchoi.com/arnenaesslod/place/Mardalsfossen</text>
</g>
<!-- Rhttp://minsikchoi.com/arnenaesslod/place/Mardalsfossen&#45;&gt;Rgn:3144096 -->
<g id="edge25" class="edge"><title>Rhttp://minsikchoi.com/arnenaesslod/place/Mardalsfossen&#45;&gt;Rgn:3144096</title>
<path fill="none" stroke="black" d="M1203.76,-1688.07C1265.02,-1656.25 1399.35,-1589.8 1519.79,-1553 1769.48,-1476.71 2082.93,-1470.39 2224.39,-1472.02"/>
<polygon fill="black" stroke="black" points="2224.63,-1475.53 2234.68,-1472.16 2224.73,-1468.53 2224.63,-1475.53"/>
<text text-anchor="middle" x="1614.79" y="-1556.8" font-family="Times,serif" font-size="14.00">gn:parentCountry</text>
</g>
<!-- Rcrm:E53_Place -->
<g id="node24" class="node"><title>Rcrm:E53_Place</title>
<ellipse fill="none" stroke="blue" cx="2300.79" cy="-1926" rx="81.4863" ry="18"/>
<text text-anchor="middle" x="2300.79" y="-1922.3" font-family="Times,serif" font-size="14.00">crm:E53_Place</text>
</g>
<!-- Rhttp://minsikchoi.com/arnenaesslod/place/Mardalsfossen&#45;&gt;Rcrm:E53_Place -->
<g id="edge23" class="edge"><title>Rhttp://minsikchoi.com/arnenaesslod/place/Mardalsfossen&#45;&gt;Rcrm:E53_Place</title>
<path fill="none" stroke="black" d="M1203.74,-1724.06C1264.98,-1756.1 1399.27,-1823.02 1519.79,-1860 1761.65,-1934.21 2064.21,-1935.39 2211.3,-1930.51"/>
<polygon fill="black" stroke="black" points="2211.75,-1934 2221.62,-1930.15 2211.5,-1927.01 2211.75,-1934"/>
<text text-anchor="middle" x="1614.79" y="-1906.8" font-family="Times,serif" font-size="14.00">rdf:type</text>
</g>
<!-- LMardalsfossen -->
<g id="node25" class="node"><title>LMardalsfossen</title>
<polygon fill="none" stroke="black" points="2239.79,-1853 2239.79,-1889 2361.79,-1889 2361.79,-1853 2239.79,-1853"/>
<text text-anchor="middle" x="2300.79" y="-1867.3" font-family="Times,serif" font-size="14.00">Mardalsfossen</text>
</g>
<!-- Rhttp://minsikchoi.com/arnenaesslod/place/Mardalsfossen&#45;&gt;LMardalsfossen -->
<g id="edge24" class="edge"><title>Rhttp://minsikchoi.com/arnenaesslod/place/Mardalsfossen&#45;&gt;LMardalsfossen</title>
<path fill="none" stroke="black" d="M1227.18,-1723.68C1296.11,-1744.62 1415.69,-1779.71 1519.79,-1804 1611.38,-1825.38 1634.38,-1832.01 1727.79,-1843 1907.62,-1864.16 2121.08,-1869.38 2229.31,-1870.64"/>
<polygon fill="black" stroke="black" points="2229.41,-1874.14 2239.45,-1870.75 2229.49,-1867.14 2229.41,-1874.14"/>
<text text-anchor="middle" x="1614.79" y="-1844.8" font-family="Times,serif" font-size="14.00">gn:name</text>
</g>
<!-- L62.4718943 -->
<g id="node26" class="node"><title>L62.4718943</title>
<polygon fill="none" stroke="black" points="2249.79,-1798 2249.79,-1834 2351.79,-1834 2351.79,-1798 2249.79,-1798"/>
<text text-anchor="middle" x="2300.79" y="-1812.3" font-family="Times,serif" font-size="14.00">62.4718943</text>
</g>
<!-- Rhttp://minsikchoi.com/arnenaesslod/place/Mardalsfossen&#45;&gt;L62.4718943 -->
<g id="edge26" class="edge"><title>Rhttp://minsikchoi.com/arnenaesslod/place/Mardalsfossen&#45;&gt;L62.4718943</title>
<path fill="none" stroke="black" d="M1265.41,-1722.91C1376.19,-1741.87 1564.62,-1772.05 1727.79,-1788 1913.81,-1806.18 2135.08,-1812.76 2239.51,-1814.97"/>
<polygon fill="black" stroke="black" points="2239.48,-1818.47 2249.55,-1815.18 2239.63,-1811.47 2239.48,-1818.47"/>
<text text-anchor="middle" x="1614.79" y="-1788.8" font-family="Times,serif" font-size="14.00">geo:lat</text>
</g>
<!-- L8.119833472 -->
<g id="node27" class="node"><title>L8.119833472</title>
<polygon fill="none" stroke="black" points="2245.29,-1743 2245.29,-1779 2356.29,-1779 2356.29,-1743 2245.29,-1743"/>
<text text-anchor="middle" x="2300.79" y="-1757.3" font-family="Times,serif" font-size="14.00">8.119833472</text>
</g>
<!-- Rhttp://minsikchoi.com/arnenaesslod/place/Mardalsfossen&#45;&gt;L8.119833472 -->
<g id="edge27" class="edge"><title>Rhttp://minsikchoi.com/arnenaesslod/place/Mardalsfossen&#45;&gt;L8.119833472</title>
<path fill="none" stroke="black" d="M1379.46,-1717.66C1425.68,-1720.15 1474.39,-1722.72 1519.79,-1725 1785.01,-1738.32 2101.07,-1752.34 2234.85,-1758.18"/>
<polygon fill="black" stroke="black" points="2234.79,-1761.68 2244.93,-1758.62 2235.09,-1754.69 2234.79,-1761.68"/>
<text text-anchor="middle" x="1614.79" y="-1737.8" font-family="Times,serif" font-size="14.00">geo:long</text>
</g>
<!-- Rhttps://en.wikipedia.org/wiki/Mardalsfossen -->
<g id="node28" class="node"><title>Rhttps://en.wikipedia.org/wiki/Mardalsfossen</title>
<ellipse fill="none" stroke="blue" cx="2300.79" cy="-1706" rx="215.262" ry="18"/>
<text text-anchor="middle" x="2300.79" y="-1702.3" font-family="Times,serif" font-size="14.00">https://en.wikipedia.org/wiki/Mardalsfossen</text>
</g>
<!-- Rhttp://minsikchoi.com/arnenaesslod/place/Mardalsfossen&#45;&gt;Rhttps://en.wikipedia.org/wiki/Mardalsfossen -->
<g id="edge28" class="edge"><title>Rhttp://minsikchoi.com/arnenaesslod/place/Mardalsfossen&#45;&gt;Rhttps://en.wikipedia.org/wiki/Mardalsfossen</title>
<path fill="none" stroke="black" d="M1444.95,-1706C1638.38,-1706 1894.04,-1706 2075.23,-1706"/>
<polygon fill="black" stroke="black" points="2075.43,-1709.5 2085.43,-1706 2075.43,-1702.5 2075.43,-1709.5"/>
<text text-anchor="middle" x="1614.79" y="-1709.8" font-family="Times,serif" font-size="14.00">dbo:wikipageExternalLink</text>
</g>
<!-- LMardalsfossen is a waterfall in Molde Municipality in Møre og Romsdal county, Norway. It is sometimes referred to as one of the tallest waterfalls in Europe. -->
<g id="node29" class="node"><title>LMardalsfossen is a waterfall in Molde Municipality in Møre og Romsdal county, Norway. It is sometimes referred to as one of the tallest waterfalls in Europe.</title>
<polygon fill="none" stroke="black" points="1727.79,-1633 1727.79,-1669 2873.79,-1669 2873.79,-1633 1727.79,-1633"/>
<text text-anchor="middle" x="2300.79" y="-1647.3" font-family="Times,serif" font-size="14.00">Mardalsfossen is a waterfall in Molde Municipality in Møre og Romsdal county, Norway. It is sometimes referred to as one of the tallest waterfalls in Europe.</text>
</g>
<!-- Rhttp://minsikchoi.com/arnenaesslod/place/Mardalsfossen&#45;&gt;LMardalsfossen is a waterfall in Molde Municipality in Møre og Romsdal county, Norway. It is sometimes referred to as one of the tallest waterfalls in Europe. -->
<g id="edge29" class="edge"><title>Rhttp://minsikchoi.com/arnenaesslod/place/Mardalsfossen&#45;&gt;LMardalsfossen is a waterfall in Molde Municipality in Møre og Romsdal county, Norway. It is sometimes referred to as one of the tallest waterfalls in Europe.</title>
<path fill="none" stroke="black" d="M1379.46,-1694.34C1425.68,-1691.85 1474.39,-1689.28 1519.79,-1687 1638.6,-1681.03 1767.61,-1674.92 1885.87,-1669.48"/>
<polygon fill="black" stroke="black" points="1886.35,-1672.96 1896.18,-1669 1886.03,-1665.96 1886.35,-1672.96"/>
<text text-anchor="middle" x="1614.79" y="-1690.8" font-family="Times,serif" font-size="14.00">dbo:abstract</text>
</g>
<!-- Rhttp://minsikchoi.com/arnenaesslod/evnet/Mardøla_Campaign -->
<g id="node30" class="node"><title>Rhttp://minsikchoi.com/arnenaesslod/evnet/Mardøla_Campaign</title>
<ellipse fill="none" stroke="blue" cx="2300.79" cy="-1596" rx="299.747" ry="18"/>
<text text-anchor="middle" x="2300.79" y="-1592.3" font-family="Times,serif" font-size="14.00">http://minsikchoi.com/arnenaesslod/evnet/Mardøla_Campaign</text>
</g>
<!-- Rhttp://minsikchoi.com/arnenaesslod/place/Mardalsfossen&#45;&gt;Rhttp://minsikchoi.com/arnenaesslod/evnet/Mardøla_Campaign -->
<g id="edge30" class="edge"><title>Rhttp://minsikchoi.com/arnenaesslod/place/Mardalsfossen&#45;&gt;Rhttp://minsikchoi.com/arnenaesslod/evnet/Mardøla_Campaign</title>
<path fill="none" stroke="black" d="M1263.91,-1689.08C1374.47,-1669.84 1563.85,-1639.03 1727.79,-1623 1821.58,-1613.83 1924.35,-1607.75 2016.58,-1603.73"/>
<polygon fill="black" stroke="black" points="2016.77,-1607.22 2026.61,-1603.3 2016.47,-1600.23 2016.77,-1607.22"/>
<text text-anchor="middle" x="1614.79" y="-1651.8" font-family="Times,serif" font-size="14.00">schema:event</text>
</g>
<!-- Rhttp://minsikchoi.com/arnenaesslod/item/Landscape_Photograph -->
<g id="node31" class="node"><title>Rhttp://minsikchoi.com/arnenaesslod/item/Landscape_Photograph</title>
<ellipse fill="none" stroke="blue" cx="2300.79" cy="-1542" rx="312.745" ry="18"/>
<text text-anchor="middle" x="2300.79" y="-1538.3" font-family="Times,serif" font-size="14.00">http://minsikchoi.com/arnenaesslod/item/Landscape_Photograph</text>
</g>
<!-- Rhttp://minsikchoi.com/arnenaesslod/place/Mardalsfossen&#45;&gt;Rhttp://minsikchoi.com/arnenaesslod/item/Landscape_Photograph -->
<g id="edge31" class="edge"><title>Rhttp://minsikchoi.com/arnenaesslod/place/Mardalsfossen&#45;&gt;Rhttp://minsikchoi.com/arnenaesslod/item/Landscape_Photograph</title>
<path fill="none" stroke="black" d="M1227.18,-1688.32C1296.11,-1667.38 1415.69,-1632.29 1519.79,-1608 1611.38,-1586.62 1634.37,-1579.91 1727.79,-1569 1814.67,-1558.85 1909.39,-1552.49 1996.31,-1548.51"/>
<polygon fill="black" stroke="black" points="1996.49,-1552.01 2006.32,-1548.06 1996.18,-1545.02 1996.49,-1552.01"/>
<text text-anchor="middle" x="1614.79" y="-1611.8" font-family="Times,serif" font-size="14.00">foaf:depiction</text>
</g>
<!-- Rhttp://minsikchoi.com/arnenaesslod/event/Mardøla_Campaign -->
<g id="node32" class="node"><title>Rhttp://minsikchoi.com/arnenaesslod/event/Mardøla_Campaign</title>
<ellipse fill="none" stroke="blue" cx="299.623" cy="-605" rx="299.747" ry="18"/>
<text text-anchor="middle" x="299.623" y="-601.3" font-family="Times,serif" font-size="14.00">http://minsikchoi.com/arnenaesslod/event/Mardøla_Campaign</text>
</g>
<!-- Rhttp://minsikchoi.com/arnenaesslod/event/Mardøla_Campaign&#45;&gt;Rhttp://minsikchoi.com/arnenaesslod/person/Arne_Naess -->
<g id="edge35" class="edge"><title>Rhttp://minsikchoi.com/arnenaesslod/event/Mardøla_Campaign&#45;&gt;Rhttp://minsikchoi.com/arnenaesslod/person/Arne_Naess</title>
<path fill="none" stroke="black" d="M313.872,-623.082C353.185,-675.111 475.327,-825.338 617.247,-886 731.238,-934.724 870.476,-945.726 980.433,-944.673"/>
<polygon fill="black" stroke="black" points="980.69,-948.17 990.644,-944.54 980.599,-941.17 980.69,-948.17"/>
<text text-anchor="middle" x="717.747" y="-938.8" font-family="Times,serif" font-size="14.00">bio:principal</text>
</g>
<!-- Rbio:GroupEvent -->
<g id="node33" class="node"><title>Rbio:GroupEvent</title>
<ellipse fill="none" stroke="blue" cx="1169.02" cy="-877" rx="83.6854" ry="18"/>
<text text-anchor="middle" x="1169.02" y="-873.3" font-family="Times,serif" font-size="14.00">bio:GroupEvent</text>
</g>
<!-- Rhttp://minsikchoi.com/arnenaesslod/event/Mardøla_Campaign&#45;&gt;Rbio:GroupEvent -->
<g id="edge32" class="edge"><title>Rhttp://minsikchoi.com/arnenaesslod/event/Mardøla_Campaign&#45;&gt;Rbio:GroupEvent</title>
<path fill="none" stroke="black" d="M319.855,-622.968C366.582,-665.447 491.516,-772.087 617.247,-820 770.995,-878.59 965.352,-884.315 1077.29,-881.674"/>
<polygon fill="black" stroke="black" points="1077.63,-885.166 1087.53,-881.403 1077.44,-878.169 1077.63,-885.166"/>
<text text-anchor="middle" x="717.747" y="-870.8" font-family="Times,serif" font-size="14.00">rdf:type</text>
</g>
<!-- LMardøla Campaign -->
<g id="node34" class="node"><title>LMardøla Campaign</title>
<polygon fill="none" stroke="black" points="1092.02,-804 1092.02,-840 1246.02,-840 1246.02,-804 1092.02,-804"/>
<text text-anchor="middle" x="1169.02" y="-818.3" font-family="Times,serif" font-size="14.00">Mardøla Campaign</text>
</g>
<!-- Rhttp://minsikchoi.com/arnenaesslod/event/Mardøla_Campaign&#45;&gt;LMardøla Campaign -->
<g id="edge33" class="edge"><title>Rhttp://minsikchoi.com/arnenaesslod/event/Mardøla_Campaign&#45;&gt;LMardøla Campaign</title>
<path fill="none" stroke="black" d="M330.423,-623.03C385.179,-655.318 506.366,-722.906 617.247,-758 775.885,-808.21 971.396,-819.794 1081.66,-822.021"/>
<polygon fill="black" stroke="black" points="1081.67,-825.522 1091.74,-822.204 1081.8,-818.523 1081.67,-825.522"/>
<text text-anchor="middle" x="717.747" y="-804.8" font-family="Times,serif" font-size="14.00">crm:P102_has_title</text>
</g>
<!-- Rhttps://en.wikipedia.org/wiki/Environmental_movement -->
<g id="node35" class="node"><title>Rhttps://en.wikipedia.org/wiki/Environmental_movement</title>
<ellipse fill="none" stroke="blue" cx="1169.02" cy="-767" rx="269.152" ry="18"/>
<text text-anchor="middle" x="1169.02" y="-763.3" font-family="Times,serif" font-size="14.00">https://en.wikipedia.org/wiki/Environmental_movement</text>
</g>
<!-- Rhttp://minsikchoi.com/arnenaesslod/event/Mardøla_Campaign&#45;&gt;Rhttps://en.wikipedia.org/wiki/Environmental_movement -->
<g id="edge34" class="edge"><title>Rhttp://minsikchoi.com/arnenaesslod/event/Mardøla_Campaign&#45;&gt;Rhttps://en.wikipedia.org/wiki/Environmental_movement</title>
<path fill="none" stroke="black" d="M350.775,-622.793C412.73,-644.244 521.666,-680.24 617.247,-703 727.699,-729.301 853.287,-744.952 956.619,-754.184"/>
<polygon fill="black" stroke="black" points="956.598,-757.695 966.866,-755.085 957.211,-750.722 956.598,-757.695"/>
<text text-anchor="middle" x="717.747" y="-742.8" font-family="Times,serif" font-size="14.00">dcterms:subject</text>
</g>
<!-- Rhttp://minsikchoi.com/arnenaesslod/person/Sigmund_Kvaløy_Setreng -->
<g id="node36" class="node"><title>Rhttp://minsikchoi.com/arnenaesslod/person/Sigmund_Kvaløy_Setreng</title>
<ellipse fill="none" stroke="blue" cx="1169.02" cy="-713" rx="332.541" ry="18"/>
<text text-anchor="middle" x="1169.02" y="-709.3" font-family="Times,serif" font-size="14.00">http://minsikchoi.com/arnenaesslod/person/Sigmund_Kvaløy_Setreng</text>
</g>
<!-- Rhttp://minsikchoi.com/arnenaesslod/event/Mardøla_Campaign&#45;&gt;Rhttp://minsikchoi.com/arnenaesslod/person/Sigmund_Kvaløy_Setreng -->
<g id="edge36" class="edge"><title>Rhttp://minsikchoi.com/arnenaesslod/event/Mardøla_Campaign&#45;&gt;Rhttp://minsikchoi.com/arnenaesslod/person/Sigmund_Kvaløy_Setreng</title>
<path fill="none" stroke="black" d="M402.127,-621.973C464.196,-632.198 545.243,-645.271 617.247,-656 714.416,-670.479 738.584,-675.345 836.247,-686 875.919,-690.328 918.329,-694.286 959.113,-697.758"/>
<polygon fill="black" stroke="black" points="958.907,-701.253 969.166,-698.607 959.496,-694.278 958.907,-701.253"/>
<text text-anchor="middle" x="717.747" y="-687.8" font-family="Times,serif" font-size="14.00">bio:principal</text>
</g>
<!-- Rhttp://minsikchoi.com/arnenaesslod/person/Odd_Einar_Dørum -->
<g id="node37" class="node"><title>Rhttp://minsikchoi.com/arnenaesslod/person/Odd_Einar_Dørum</title>
<ellipse fill="none" stroke="blue" cx="1169.02" cy="-659" rx="299.747" ry="18"/>
<text text-anchor="middle" x="1169.02" y="-655.3" font-family="Times,serif" font-size="14.00">http://minsikchoi.com/arnenaesslod/person/Odd_Einar_Dørum</text>
</g>
<!-- Rhttp://minsikchoi.com/arnenaesslod/event/Mardøla_Campaign&#45;&gt;Rhttp://minsikchoi.com/arnenaesslod/person/Odd_Einar_Dørum -->
<g id="edge37" class="edge"><title>Rhttp://minsikchoi.com/arnenaesslod/event/Mardøla_Campaign&#45;&gt;Rhttp://minsikchoi.com/arnenaesslod/person/Odd_Einar_Dørum</title>
<path fill="none" stroke="black" d="M508.386,-617.934C641.749,-626.237 814.657,-637.001 949.985,-645.426"/>
<polygon fill="black" stroke="black" points="949.875,-648.926 960.073,-646.054 950.31,-641.94 949.875,-648.926"/>
<text text-anchor="middle" x="717.747" y="-640.8" font-family="Times,serif" font-size="14.00">bio:principal</text>
</g>
<!-- Rdbc:Civil_disobedience -->
<g id="node38" class="node"><title>Rdbc:Civil_disobedience</title>
<ellipse fill="none" stroke="blue" cx="1169.02" cy="-605" rx="118.079" ry="18"/>
<text text-anchor="middle" x="1169.02" y="-601.3" font-family="Times,serif" font-size="14.00">dbc:Civil_disobedience</text>
</g>
<!-- Rhttp://minsikchoi.com/arnenaesslod/event/Mardøla_Campaign&#45;&gt;Rdbc:Civil_disobedience -->
<g id="edge38" class="edge"><title>Rhttp://minsikchoi.com/arnenaesslod/event/Mardøla_Campaign&#45;&gt;Rdbc:Civil_disobedience</title>
<path fill="none" stroke="black" d="M599.435,-605C749.964,-605 924.568,-605 1040.15,-605"/>
<polygon fill="black" stroke="black" points="1040.46,-608.5 1050.46,-605 1040.46,-601.5 1040.46,-608.5"/>
<text text-anchor="middle" x="717.747" y="-608.8" font-family="Times,serif" font-size="14.00">crm:P17_was_motivated_by</text>
</g>
<!-- LCooperation groups for nature and environmental protection -->
<g id="node39" class="node"><title>LCooperation groups for nature and environmental protection</title>
<polygon fill="none" stroke="black" points="943.017,-532 943.017,-568 1395.02,-568 1395.02,-532 943.017,-532"/>
<text text-anchor="middle" x="1169.02" y="-546.3" font-family="Times,serif" font-size="14.00">Cooperation groups for nature and environmental protection</text>
</g>
<!-- Rhttp://minsikchoi.com/arnenaesslod/event/Mardøla_Campaign&#45;&gt;LCooperation groups for nature and environmental protection -->
<g id="edge39" class="edge"><title>Rhttp://minsikchoi.com/arnenaesslod/event/Mardøla_Campaign&#45;&gt;LCooperation groups for nature and environmental protection</title>
<path fill="none" stroke="black" d="M506.459,-591.948C634.389,-583.836 799.263,-573.382 932.411,-564.939"/>
<polygon fill="black" stroke="black" points="932.993,-568.41 942.752,-564.284 932.55,-561.424 932.993,-568.41"/>
<text text-anchor="middle" x="717.747" y="-588.8" font-family="Times,serif" font-size="14.00">bio:officiator</text>
</g>
<!-- Rgn:3158545 -->
<g id="node40" class="node"><title>Rgn:3158545</title>
<ellipse fill="none" stroke="blue" cx="1169.02" cy="-495" rx="66.0889" ry="18"/>
<text text-anchor="middle" x="1169.02" y="-491.3" font-family="Times,serif" font-size="14.00">gn:3158545</text>
</g>
<!-- Rhttp://minsikchoi.com/arnenaesslod/event/Mardøla_Campaign&#45;&gt;Rgn:3158545 -->
<g id="edge40" class="edge"><title>Rhttp://minsikchoi.com/arnenaesslod/event/Mardøla_Campaign&#45;&gt;Rgn:3158545</title>
<path fill="none" stroke="black" d="M403.232,-588.083C465.174,-577.968 545.705,-564.988 617.247,-554 714.474,-539.067 738.509,-533.106 836.247,-522 924.725,-511.946 1026.89,-504.213 1094.21,-499.65"/>
<polygon fill="black" stroke="black" points="1094.55,-503.135 1104.3,-498.972 1094.09,-496.15 1094.55,-503.135"/>
<text text-anchor="middle" x="717.747" y="-557.8" font-family="Times,serif" font-size="14.00">bio:place</text>
</g>
<!-- L1970&#45;07&#45;27|Datatype: xsd:date -->
<g id="node41" class="node"><title>L1970&#45;07&#45;27|Datatype: xsd:date</title>
<polygon fill="none" stroke="black" points="1093.02,-412 1093.02,-458 1245.02,-458 1245.02,-412 1093.02,-412"/>
<text text-anchor="middle" x="1169.02" y="-442.8" font-family="Times,serif" font-size="14.00">1970&#45;07&#45;27</text>
<polyline fill="none" stroke="black" points="1093.02,-435 1245.02,-435 "/>
<text text-anchor="middle" x="1169.02" y="-419.8" font-family="Times,serif" font-size="14.00">Datatype: xsd:date</text>
</g>
<!-- Rhttp://minsikchoi.com/arnenaesslod/event/Mardøla_Campaign&#45;&gt;L1970&#45;07&#45;27|Datatype: xsd:date -->
<g id="edge41" class="edge"><title>Rhttp://minsikchoi.com/arnenaesslod/event/Mardøla_Campaign&#45;&gt;L1970&#45;07&#45;27|Datatype: xsd:date</title>
<path fill="none" stroke="black" d="M350.503,-587.166C412.409,-565.554 521.524,-529.164 617.247,-506 779.059,-466.843 973.172,-448.207 1082.39,-440.224"/>
<polygon fill="black" stroke="black" points="1082.96,-443.691 1092.69,-439.484 1082.46,-436.709 1082.96,-443.691"/>
<text text-anchor="middle" x="717.747" y="-509.8" font-family="Times,serif" font-size="14.00">bio:date</text>
</g>
<!-- Rhttp://minsikchoi.com/arnenaesslod/item/Campaign_Photograph -->
<g id="node42" class="node"><title>Rhttp://minsikchoi.com/arnenaesslod/item/Campaign_Photograph</title>
<ellipse fill="none" stroke="blue" cx="1169.02" cy="-375" rx="309.245" ry="18"/>
<text text-anchor="middle" x="1169.02" y="-371.3" font-family="Times,serif" font-size="14.00">http://minsikchoi.com/arnenaesslod/item/Campaign_Photograph</text>
</g>
<!-- Rhttp://minsikchoi.com/arnenaesslod/event/Mardøla_Campaign&#45;&gt;Rhttp://minsikchoi.com/arnenaesslod/item/Campaign_Photograph -->
<g id="edge42" class="edge"><title>Rhttp://minsikchoi.com/arnenaesslod/event/Mardøla_Campaign&#45;&gt;Rhttp://minsikchoi.com/arnenaesslod/item/Campaign_Photograph</title>
<path fill="none" stroke="black" d="M331.484,-586.964C386.948,-555.249 507.905,-489.237 617.247,-451 714.366,-417.038 826.093,-398.181 923.426,-387.74"/>
<polygon fill="black" stroke="black" points="923.822,-391.217 933.402,-386.693 923.092,-384.256 923.822,-391.217"/>
<text text-anchor="middle" x="717.747" y="-454.8" font-family="Times,serif" font-size="14.00">foaf:depiction</text>
</g>
<!-- Rhttp://minsikchoi.com/arnenaesslod/item/Campaign_Poster -->
<g id="node43" class="node"><title>Rhttp://minsikchoi.com/arnenaesslod/item/Campaign_Poster</title>
<ellipse fill="none" stroke="blue" cx="1169.02" cy="-321" rx="285.149" ry="18"/>
<text text-anchor="middle" x="1169.02" y="-317.3" font-family="Times,serif" font-size="14.00">http://minsikchoi.com/arnenaesslod/item/Campaign_Poster</text>
</g>
<!-- Rhttp://minsikchoi.com/arnenaesslod/event/Mardøla_Campaign&#45;&gt;Rhttp://minsikchoi.com/arnenaesslod/item/Campaign_Poster -->
<g id="edge43" class="edge"><title>Rhttp://minsikchoi.com/arnenaesslod/event/Mardøla_Campaign&#45;&gt;Rhttp://minsikchoi.com/arnenaesslod/item/Campaign_Poster</title>
<path fill="none" stroke="black" d="M319.884,-586.899C366.676,-544.053 491.741,-436.195 617.247,-385 698.459,-351.873 791.63,-334.219 877.961,-325.221"/>
<polygon fill="black" stroke="black" points="878.312,-328.703 887.911,-324.219 877.61,-321.739 878.312,-328.703"/>
<text text-anchor="middle" x="717.747" y="-388.8" font-family="Times,serif" font-size="14.00">foaf:depiction</text>
</g>
<!-- Rhttps://no.wikipedia.org/wiki/Mard%C3%B8la&#45;aksjonen -->
<g id="node44" class="node"><title>Rhttps://no.wikipedia.org/wiki/Mard%C3%B8la&#45;aksjonen</title>
<ellipse fill="none" stroke="blue" cx="1169.02" cy="-267" rx="268.352" ry="18"/>
<text text-anchor="middle" x="1169.02" y="-263.3" font-family="Times,serif" font-size="14.00">https://no.wikipedia.org/wiki/Mard%C3%B8la&#45;aksjonen</text>
</g>
<!-- Rhttp://minsikchoi.com/arnenaesslod/event/Mardøla_Campaign&#45;&gt;Rhttps://no.wikipedia.org/wiki/Mard%C3%B8la&#45;aksjonen -->
<g id="edge44" class="edge"><title>Rhttp://minsikchoi.com/arnenaesslod/event/Mardøla_Campaign&#45;&gt;Rhttps://no.wikipedia.org/wiki/Mard%C3%B8la&#45;aksjonen</title>
<path fill="none" stroke="black" d="M313.517,-586.911C352.321,-534.105 474.197,-379.877 617.247,-316 728.387,-266.372 864.541,-253.884 973.669,-253.92"/>
<polygon fill="black" stroke="black" points="973.795,-257.42 983.809,-253.959 973.822,-250.42 973.795,-257.42"/>
<text text-anchor="middle" x="717.747" y="-319.8" font-family="Times,serif" font-size="14.00">dbo:wikipageExternalLink</text>
</g>
</g>
</svg>

